<svg width="387" height="401" viewBox="0 0 387 401" fill="none" xmlns="http://www.w3.org/2000/svg">
<g filter="url(#filter0_d)">
<path fill-rule="evenodd" clip-rule="evenodd" d="M48.5991 72.3393C48.6378 72.3481 48.6766 72.3569 48.7153 72.3658C32.8004 93.7386 1.72419 147.296 4.73968 190.545C3.90205 215.271 11.5245 275.03 48.7153 316.266L48.5437 316.326C57.9582 329.854 93.3237 360.792 116.118 369.166C118.493 370.038 120.292 371.014 121.589 372.071C183.703 396.763 301.165 407.836 374.135 288.609L311.312 257.177C296.654 286.933 246.982 340.154 165.565 315.011C165.68 314.883 165.795 314.755 165.91 314.625L165.687 314.572C134.547 307.161 109.527 281.807 102.557 271.575C80.1591 247.242 54.3938 189.897 101.685 119.863L106.714 112.32C106.801 112.405 106.888 112.491 106.975 112.578L107.097 112.279C122.502 89.3275 152.413 76.138 165.568 72.3697L165.565 72.3658C195.719 63.5651 267.086 63.3136 311.312 132.713L374.135 102.54C357.801 76.1382 312.569 21.0716 262.312 12.0197C237.601 2.80005 172.601 -7.34155 110.281 25.8491C110.21 25.8116 110.14 25.774 110.069 25.7365C95.7007 30.5935 63.3331 55.2844 48.5991 72.3393Z" fill="url(#paint0_linear)"/>
<path fill-rule="evenodd" clip-rule="evenodd" d="M48.5991 72.3393C48.6378 72.3481 48.6766 72.3569 48.7153 72.3658C32.8004 93.7386 1.72419 147.296 4.73968 190.545C3.90205 215.271 11.5245 275.03 48.7153 316.266L48.5437 316.326C57.9582 329.854 93.3237 360.792 116.118 369.166C118.493 370.038 120.292 371.014 121.589 372.071C183.703 396.763 301.165 407.836 374.135 288.609L311.312 257.177C296.654 286.933 246.982 340.154 165.565 315.011C165.68 314.883 165.795 314.755 165.91 314.625L165.687 314.572C134.547 307.161 109.527 281.807 102.557 271.575C80.1591 247.242 54.3938 189.897 101.685 119.863L106.714 112.32C106.801 112.405 106.888 112.491 106.975 112.578L107.097 112.279C122.502 89.3275 152.413 76.138 165.568 72.3697L165.565 72.3658C195.719 63.5651 267.086 63.3136 311.312 132.713L374.135 102.54C357.801 76.1382 312.569 21.0716 262.312 12.0197C237.601 2.80005 172.601 -7.34155 110.281 25.8491C110.21 25.8116 110.14 25.774 110.069 25.7365C95.7007 30.5935 63.3331 55.2844 48.5991 72.3393Z" fill="url(#paint1_linear)"/>
<path fill-rule="evenodd" clip-rule="evenodd" d="M48.5991 72.3393C48.6378 72.3481 48.6766 72.3569 48.7153 72.3658C32.8004 93.7386 1.72419 147.296 4.73968 190.545C3.90205 215.271 11.5245 275.03 48.7153 316.266L48.5437 316.326C57.9582 329.854 93.3237 360.792 116.118 369.166C118.493 370.038 120.292 371.014 121.589 372.071C183.703 396.763 301.165 407.836 374.135 288.609L311.312 257.177C296.654 286.933 246.982 340.154 165.565 315.011C165.68 314.883 165.795 314.755 165.91 314.625L165.687 314.572C134.547 307.161 109.527 281.807 102.557 271.575C80.1591 247.242 54.3938 189.897 101.685 119.863L106.714 112.32C106.801 112.405 106.888 112.491 106.975 112.578L107.097 112.279C122.502 89.3275 152.413 76.138 165.568 72.3697L165.565 72.3658C195.719 63.5651 267.086 63.3136 311.312 132.713L374.135 102.54C357.801 76.1382 312.569 21.0716 262.312 12.0197C237.601 2.80005 172.601 -7.34155 110.281 25.8491C110.21 25.8116 110.14 25.774 110.069 25.7365C95.7007 30.5935 63.3331 55.2844 48.5991 72.3393Z" fill="url(#paint2_linear)"/>
<path fill-rule="evenodd" clip-rule="evenodd" d="M48.5991 72.3393C48.6378 72.3481 48.6766 72.3569 48.7153 72.3658C32.8004 93.7386 1.72419 147.296 4.73968 190.545C3.90205 215.271 11.5245 275.03 48.7153 316.266L48.5437 316.326C57.9582 329.854 93.3237 360.792 116.118 369.166C118.493 370.038 120.292 371.014 121.589 372.071C183.703 396.763 301.165 407.836 374.135 288.609L311.312 257.177C296.654 286.933 246.982 340.154 165.565 315.011C165.68 314.883 165.795 314.755 165.91 314.625L165.687 314.572C134.547 307.161 109.527 281.807 102.557 271.575C80.1591 247.242 54.3938 189.897 101.685 119.863L106.714 112.32C106.801 112.405 106.888 112.491 106.975 112.578L107.097 112.279C122.502 89.3275 152.413 76.138 165.568 72.3697L165.565 72.3658C195.719 63.5651 267.086 63.3136 311.312 132.713L374.135 102.54C357.801 76.1382 312.569 21.0716 262.312 12.0197C237.601 2.80005 172.601 -7.34155 110.281 25.8491C110.21 25.8116 110.14 25.774 110.069 25.7365C95.7007 30.5935 63.3331 55.2844 48.5991 72.3393Z" fill="url(#paint3_linear)"/>
</g>
<defs>
<filter id="filter0_d" x="0.535156" y="0" width="385.6" height="401" filterUnits="userSpaceOnUse" color-interpolation-filters="sRGB">
<feFlood flood-opacity="0" result="BackgroundImageFix"/>
<feColorMatrix in="SourceAlpha" type="matrix" values="0 0 0 0 0 0 0 0 0 0 0 0 0 0 0 0 0 0 127 0"/>
<feOffset dx="4" dy="5"/>
<feGaussianBlur stdDeviation="4"/>
<feColorMatrix type="matrix" values="0 0 0 0 0.701961 0 0 0 0 0.529412 0 0 0 0 0.156863 0 0 0 0.5 0"/>
<feBlend mode="normal" in2="BackgroundImageFix" result="effect1_dropShadow"/>
<feBlend mode="normal" in="SourceGraphic" in2="effect1_dropShadow" result="shape"/>
</filter>
<linearGradient id="paint0_linear" x1="189.335" y1="124.917" x2="189.442" y2="253.25" gradientUnits="userSpaceOnUse">
<stop stop-color="#FDE698"/>
<stop offset="0.308384" stop-color="#2E1D01"/>
<stop offset="0.493542" stop-color="#2E1D01"/>
<stop offset="0.859375" stop-color="#DA960D"/>
<stop offset="1" stop-color="#DA960D"/>
</linearGradient>
<linearGradient id="paint1_linear" x1="240.765" y1="276.35" x2="333.764" y2="311.67" gradientUnits="userSpaceOnUse">
<stop stop-color="#DB970D" stop-opacity="0"/>
<stop offset="1" stop-color="#825305"/>
</linearGradient>
<linearGradient id="paint2_linear" x1="96.0635" y1="195.5" x2="5.52906" y2="254.599" gradientUnits="userSpaceOnUse">
<stop stop-color="#DB970D" stop-opacity="0"/>
<stop offset="1" stop-color="#97702E"/>
</linearGradient>
<linearGradient id="paint3_linear" x1="220.716" y1="44.0667" x2="218.828" y2="114.623" gradientUnits="userSpaceOnUse">
<stop stop-color="#F3CF8A"/>
<stop offset="1" stop-color="white" stop-opacity="0"/>
</linearGradient>
</defs>
</svg>
