<svg width="386" height="401" viewBox="0 0 386 401" fill="none" xmlns="http://www.w3.org/2000/svg">
<g filter="url(#filter0_d)">
<path fill-rule="evenodd" clip-rule="evenodd" d="M337.536 72.3393C337.497 72.3481 337.459 72.3569 337.42 72.3658C353.335 93.7386 384.411 147.296 381.395 190.545C382.233 215.271 374.611 275.03 337.42 316.266L337.591 316.326C328.177 329.854 292.811 360.792 270.017 369.166C267.642 370.038 265.843 371.014 264.546 372.071C202.432 396.763 84.9699 407.836 12 288.609L74.823 257.177C89.4808 286.933 139.153 340.154 220.57 315.011C220.455 314.883 220.34 314.755 220.225 314.625L220.448 314.572C251.588 307.161 276.608 281.807 283.578 271.575C305.976 247.242 331.741 189.897 284.45 119.863L279.422 112.32C279.335 112.405 279.247 112.491 279.16 112.578L279.038 112.279C263.633 89.3275 233.722 76.138 220.568 72.3697L220.57 72.3658C190.416 63.5651 119.049 63.3136 74.823 132.713L12 102.54C28.3345 76.1382 73.5663 21.0716 123.823 12.0197C148.534 2.80005 213.534 -7.34155 275.854 25.8491C275.925 25.8116 275.996 25.774 276.066 25.7365C290.434 30.5935 322.802 55.2844 337.536 72.3393Z" fill="url(#paint0_linear)"/>
<path fill-rule="evenodd" clip-rule="evenodd" d="M337.536 72.3393C337.497 72.3481 337.459 72.3569 337.42 72.3658C353.335 93.7386 384.411 147.296 381.395 190.545C382.233 215.271 374.611 275.03 337.42 316.266L337.591 316.326C328.177 329.854 292.811 360.792 270.017 369.166C267.642 370.038 265.843 371.014 264.546 372.071C202.432 396.763 84.9699 407.836 12 288.609L74.823 257.177C89.4808 286.933 139.153 340.154 220.57 315.011C220.455 314.883 220.34 314.755 220.225 314.625L220.448 314.572C251.588 307.161 276.608 281.807 283.578 271.575C305.976 247.242 331.741 189.897 284.45 119.863L279.422 112.32C279.335 112.405 279.247 112.491 279.16 112.578L279.038 112.279C263.633 89.3275 233.722 76.138 220.568 72.3697L220.57 72.3658C190.416 63.5651 119.049 63.3136 74.823 132.713L12 102.54C28.3345 76.1382 73.5663 21.0716 123.823 12.0197C148.534 2.80005 213.534 -7.34155 275.854 25.8491C275.925 25.8116 275.996 25.774 276.066 25.7365C290.434 30.5935 322.802 55.2844 337.536 72.3393Z" fill="url(#paint1_linear)"/>
<path fill-rule="evenodd" clip-rule="evenodd" d="M337.536 72.3393C337.497 72.3481 337.459 72.3569 337.42 72.3658C353.335 93.7386 384.411 147.296 381.395 190.545C382.233 215.271 374.611 275.03 337.42 316.266L337.591 316.326C328.177 329.854 292.811 360.792 270.017 369.166C267.642 370.038 265.843 371.014 264.546 372.071C202.432 396.763 84.9699 407.836 12 288.609L74.823 257.177C89.4808 286.933 139.153 340.154 220.57 315.011C220.455 314.883 220.34 314.755 220.225 314.625L220.448 314.572C251.588 307.161 276.608 281.807 283.578 271.575C305.976 247.242 331.741 189.897 284.45 119.863L279.422 112.32C279.335 112.405 279.247 112.491 279.16 112.578L279.038 112.279C263.633 89.3275 233.722 76.138 220.568 72.3697L220.57 72.3658C190.416 63.5651 119.049 63.3136 74.823 132.713L12 102.54C28.3345 76.1382 73.5663 21.0716 123.823 12.0197C148.534 2.80005 213.534 -7.34155 275.854 25.8491C275.925 25.8116 275.996 25.774 276.066 25.7365C290.434 30.5935 322.802 55.2844 337.536 72.3393Z" fill="url(#paint2_linear)"/>
<path fill-rule="evenodd" clip-rule="evenodd" d="M337.536 72.3393C337.497 72.3481 337.459 72.3569 337.42 72.3658C353.335 93.7386 384.411 147.296 381.395 190.545C382.233 215.271 374.611 275.03 337.42 316.266L337.591 316.326C328.177 329.854 292.811 360.792 270.017 369.166C267.642 370.038 265.843 371.014 264.546 372.071C202.432 396.763 84.9699 407.836 12 288.609L74.823 257.177C89.4808 286.933 139.153 340.154 220.57 315.011C220.455 314.883 220.34 314.755 220.225 314.625L220.448 314.572C251.588 307.161 276.608 281.807 283.578 271.575C305.976 247.242 331.741 189.897 284.45 119.863L279.422 112.32C279.335 112.405 279.247 112.491 279.16 112.578L279.038 112.279C263.633 89.3275 233.722 76.138 220.568 72.3697L220.57 72.3658C190.416 63.5651 119.049 63.3136 74.823 132.713L12 102.54C28.3345 76.1382 73.5663 21.0716 123.823 12.0197C148.534 2.80005 213.534 -7.34155 275.854 25.8491C275.925 25.8116 275.996 25.774 276.066 25.7365C290.434 30.5935 322.802 55.2844 337.536 72.3393Z" fill="url(#paint3_linear)"/>
</g>
<defs>
<filter id="filter0_d" x="0" y="0" width="385.6" height="401" filterUnits="userSpaceOnUse" color-interpolation-filters="sRGB">
<feFlood flood-opacity="0" result="BackgroundImageFix"/>
<feColorMatrix in="SourceAlpha" type="matrix" values="0 0 0 0 0 0 0 0 0 0 0 0 0 0 0 0 0 0 127 0"/>
<feOffset dx="-4" dy="5"/>
<feGaussianBlur stdDeviation="4"/>
<feColorMatrix type="matrix" values="0 0 0 0 0.701961 0 0 0 0 0.529412 0 0 0 0 0.156863 0 0 0 0.5 0"/>
<feBlend mode="normal" in2="BackgroundImageFix" result="effect1_dropShadow"/>
<feBlend mode="normal" in="SourceGraphic" in2="effect1_dropShadow" result="shape"/>
</filter>
<linearGradient id="paint0_linear" x1="196.8" y1="124.917" x2="196.907" y2="253.25" gradientUnits="userSpaceOnUse">
<stop stop-color="#FDE698"/>
<stop offset="0.308384" stop-color="#2E1D01"/>
<stop offset="0.493542" stop-color="#2E1D01"/>
<stop offset="0.859375" stop-color="#DA960D"/>
<stop offset="1" stop-color="#DA960D"/>
</linearGradient>
<linearGradient id="paint1_linear" x1="248.23" y1="276.35" x2="341.229" y2="311.67" gradientUnits="userSpaceOnUse">
<stop stop-color="#DB970D" stop-opacity="0"/>
<stop offset="1" stop-color="#825305"/>
</linearGradient>
<linearGradient id="paint2_linear" x1="103.528" y1="195.5" x2="12.9939" y2="254.599" gradientUnits="userSpaceOnUse">
<stop stop-color="#DB970D" stop-opacity="0"/>
<stop offset="1" stop-color="#97702E"/>
</linearGradient>
<linearGradient id="paint3_linear" x1="228.181" y1="44.0667" x2="226.293" y2="114.623" gradientUnits="userSpaceOnUse">
<stop stop-color="#F3CF8A"/>
<stop offset="1" stop-color="white" stop-opacity="0"/>
</linearGradient>
</defs>
</svg>
