<svg width="196" height="37" viewBox="0 0 196 37" fill="none" xmlns="http://www.w3.org/2000/svg">
<path d="M1.85156 1.64062V0.640625H0.851562V1.64062H1.85156ZM14.6055 1.64062H15.6055V0.640625H14.6055V1.64062ZM14.6055 5.625V6.625H15.6055V5.625H14.6055ZM6.91016 5.625V4.625H5.91016V5.625H6.91016ZM6.91016 15.6055H5.91016V16.6055H6.91016V15.6055ZM12.9453 15.6055H13.9453V14.6055H12.9453V15.6055ZM12.9453 19.5898V20.5898H13.9453V19.5898H12.9453ZM6.91016 19.5898V18.5898H5.91016V19.5898H6.91016ZM6.91016 35V36H7.91016V35H6.91016ZM1.85156 35H0.851562V36H1.85156V35ZM1.85156 2.64062H14.6055V0.640625H1.85156V2.64062ZM13.6055 1.64062V5.625H15.6055V1.64062H13.6055ZM14.6055 4.625H6.91016V6.625H14.6055V4.625ZM5.91016 5.625V15.6055H7.91016V5.625H5.91016ZM6.91016 16.6055H12.9453V14.6055H6.91016V16.6055ZM11.9453 15.6055V19.5898H13.9453V15.6055H11.9453ZM12.9453 18.5898H6.91016V20.5898H12.9453V18.5898ZM5.91016 19.5898V35H7.91016V19.5898H5.91016ZM6.91016 34H1.85156V36H6.91016V34ZM2.85156 35V1.64062H0.851562V35H2.85156ZM28.0562 1.64062V0.640625H27.2238L27.0728 1.45926L28.0562 1.64062ZM33.8766 1.64062L34.8599 1.4587L34.7085 0.640625H33.8766V1.64062ZM40.0484 35V36H41.2504L41.0317 34.8181L40.0484 35ZM34.9312 35L33.9428 35.1518L34.0731 36H34.9312V35ZM34.0133 29.0234L35.0017 28.8716L34.8714 28.0234H34.0133V29.0234ZM27.9195 29.0234V28.0234H27.0558L26.9302 28.8779L27.9195 29.0234ZM27.0406 35V36H27.9043L28.03 35.1455L27.0406 35ZM21.9039 35L20.9205 34.8186L20.7026 36H21.9039V35ZM33.4273 25.2148V26.2148H34.5782L34.4175 25.0752L33.4273 25.2148ZM31.0836 8.59375L32.0738 8.45412L31.9525 7.59375H31.0836V8.59375ZM30.8687 8.59375V7.59375H30.0009L29.8787 8.45298L30.8687 8.59375ZM28.5055 25.2148L27.5154 25.0741L27.3532 26.2148H28.5055V25.2148ZM28.0562 2.64062H33.8766V0.640625H28.0562V2.64062ZM32.8932 1.82255L39.0651 35.1819L41.0317 34.8181L34.8599 1.4587L32.8932 1.82255ZM40.0484 34H34.9312V36H40.0484V34ZM35.9197 34.8482L35.0017 28.8716L33.0249 29.1753L33.9428 35.1518L35.9197 34.8482ZM34.0133 28.0234H27.9195V30.0234H34.0133V28.0234ZM26.9302 28.8779L26.0513 34.8545L28.03 35.1455L28.9089 29.1689L26.9302 28.8779ZM27.0406 34H21.9039V36H27.0406V34ZM22.8873 35.1814L29.0397 1.82199L27.0728 1.45926L20.9205 34.8186L22.8873 35.1814ZM34.4175 25.0752L32.0738 8.45412L30.0934 8.73338L32.4371 25.3545L34.4175 25.0752ZM31.0836 7.59375H30.8687V9.59375H31.0836V7.59375ZM29.8787 8.45298L27.5154 25.0741L29.4955 25.3556L31.8588 8.73452L29.8787 8.45298ZM28.5055 26.2148H33.4273V24.2148H28.5055V26.2148ZM56.8781 35.293L56.8781 36.293L56.8838 36.293L56.8781 35.293ZM55.1789 35.1562L55.3262 34.1672L55.3172 34.1658L55.3082 34.1646L55.1789 35.1562ZM53.3625 34.6289L52.9472 35.5386L52.9546 35.5419L53.3625 34.6289ZM51.6242 33.4766L50.9438 34.2094L50.9528 34.2177L50.962 34.2259L51.6242 33.4766ZM50.1594 31.4844L49.2677 31.9373L49.2735 31.9484L50.1594 31.4844ZM49.1437 28.457L48.1639 28.6572L48.1666 28.6695L49.1437 28.457ZM49.1633 8.02734L50.14 8.242L50.1405 8.23977L49.1633 8.02734ZM50.1984 5.01953L51.0812 5.48939L51.0843 5.48354L50.1984 5.01953ZM51.6828 3.06641L51.0306 2.3084L51.6828 3.06641ZM53.4211 1.97266L53.8029 2.89692L53.8114 2.8934L53.8198 2.88973L53.4211 1.97266ZM55.1984 1.46484L55.0691 0.473239L55.0663 0.473616L55.1984 1.46484ZM60.1789 1.91406L59.7866 2.83391L59.7947 2.83736L59.8029 2.84068L60.1789 1.91406ZM62.3273 3.4375L61.5541 4.07158L61.561 4.08001L61.5681 4.08829L62.3273 3.4375ZM63.4797 5.68359L62.5113 5.93303L62.5131 5.93988L62.5149 5.94671L63.4797 5.68359ZM63.7141 10.4102L62.7221 10.2835L62.7209 10.2928L62.7199 10.3021L63.7141 10.4102ZM63.4016 12.4023V13.4023H64.2242L64.3828 12.5951L63.4016 12.4023ZM59.3 12.4023H58.3V13.4023H59.3V12.4023ZM54.8078 6.42578L55.6858 6.90467L55.6916 6.89367L54.8078 6.42578ZM54.2609 8.14453L53.2771 7.96565L53.2755 7.97433L53.2741 7.98304L54.2609 8.14453ZM54.2219 28.6523L53.2305 28.7833L53.2317 28.7925L53.2331 28.8016L54.2219 28.6523ZM54.7102 30.3125L55.5933 29.8433L54.7102 30.3125ZM55.5695 31.2109L55.1092 32.0987L55.1286 32.1087L55.1484 32.1179L55.5695 31.2109ZM57.8156 31.25L58.2471 32.1521L58.2628 32.1446L58.2782 32.1366L57.8156 31.25ZM58.5969 30.5469L57.7853 29.9626L57.7808 29.9689L58.5969 30.5469ZM59.1437 29.3359L58.1832 29.0579L58.1807 29.0664L58.1784 29.075L59.1437 29.3359ZM59.3586 24.3359V23.3359H58.3586V24.3359H59.3586ZM63.9875 24.3359H64.9875V23.3359H63.9875V24.3359ZM56.8781 34.293C56.4147 34.293 55.8982 34.2523 55.3262 34.1672L55.0316 36.1453C55.6836 36.2424 56.2998 36.293 56.8781 36.293V34.293ZM55.3082 34.1646C54.8154 34.1004 54.3035 33.9541 53.7704 33.7159L52.9546 35.5419C53.6455 35.8506 54.3445 36.0559 55.0496 36.1479L55.3082 34.1646ZM53.7778 33.7192C53.2798 33.4919 52.7822 33.1653 52.2864 32.7272L50.962 34.2259C51.5861 34.7774 52.2473 35.2191 52.9472 35.5386L53.7778 33.7192ZM52.3047 32.7438C51.8583 32.3293 51.4344 31.7634 51.0452 31.0204L49.2735 31.9484C49.7437 32.846 50.2964 33.6082 50.9438 34.2094L52.3047 32.7438ZM51.051 31.0315C50.6833 30.3078 50.3688 29.3848 50.1209 28.2446L48.1666 28.6695C48.4395 29.9251 48.8021 31.0204 49.2678 31.9372L51.051 31.0315ZM50.1235 28.2569C49.8933 27.13 49.7727 25.7617 49.7727 24.1406H47.7727C47.7727 25.8529 47.8994 27.3622 48.164 28.6572L50.1235 28.2569ZM49.7727 24.1406V12.3242H47.7727V24.1406H49.7727ZM49.7727 12.3242C49.7727 10.6913 49.8997 9.33531 50.14 8.242L48.1866 7.81269C47.906 9.08917 47.7727 10.5977 47.7727 12.3242H49.7727ZM50.1405 8.23977C50.3875 7.10319 50.7064 6.19343 51.0812 5.48938L49.3157 4.54968C48.8311 5.46022 48.4599 6.55567 48.1861 7.81491L50.1405 8.23977ZM51.0843 5.48354C51.4697 4.74777 51.8918 4.20584 52.3351 3.82442L51.0306 2.3084C50.3541 2.89051 49.7866 3.65067 49.3126 4.55552L51.0843 5.48354ZM52.3351 3.82442C52.8253 3.40256 53.315 3.09842 53.8029 2.89692L53.0393 1.04839C52.3293 1.34169 51.6601 1.76671 51.0306 2.3084L52.3351 3.82442ZM53.8198 2.88973C54.3426 2.66243 54.8456 2.52074 55.3306 2.45607L55.0663 0.473616C54.3794 0.565197 53.6975 0.762047 53.0224 1.05559L53.8198 2.88973ZM55.3278 2.45644C55.8916 2.3829 56.4012 2.34766 56.8586 2.34766V0.347656C56.3003 0.347656 55.7032 0.390538 55.0691 0.473243L55.3278 2.45644ZM56.8586 2.34766C58.0998 2.34766 59.0628 2.5252 59.7866 2.83391L60.5712 0.994219C59.5242 0.547713 58.2737 0.347656 56.8586 0.347656V2.34766ZM59.8029 2.84068C60.5702 3.15206 61.1412 3.5681 61.5541 4.07158L63.1006 2.80342C62.4458 2.00481 61.5845 1.40523 60.5549 0.98745L59.8029 2.84068ZM61.5681 4.08829C62.0099 4.60377 62.3259 5.21315 62.5113 5.93303L64.4481 5.43416C64.1908 4.43528 63.7385 3.54727 63.0866 2.78671L61.5681 4.08829ZM62.5149 5.94671C62.7241 6.71365 62.8312 7.5361 62.8312 8.41797H64.8312C64.8312 7.37275 64.704 6.37229 64.4445 5.42048L62.5149 5.94671ZM62.8312 8.41797C62.8312 9.09833 62.7941 9.71958 62.7221 10.2835L64.706 10.5368C64.7903 9.87678 64.8312 9.1699 64.8312 8.41797H62.8312ZM62.7199 10.3021C62.6585 10.867 62.5592 11.5023 62.4203 12.2096L64.3828 12.5951C64.5303 11.8441 64.6394 11.1512 64.7082 10.5182L62.7199 10.3021ZM63.4016 11.4023H59.3V13.4023H63.4016V11.4023ZM60.3 12.4023V10.7031H58.3V12.4023H60.3ZM60.3 10.7031C60.3 8.82555 60.0984 7.28248 59.6089 6.17711L57.7802 6.98696C58.0979 7.7045 58.3 8.90883 58.3 10.7031H60.3ZM59.6089 6.17711C59.3612 5.61773 59.0225 5.12197 58.5572 4.76402C58.0778 4.3953 57.5176 4.21484 56.9172 4.21484V6.21484C57.098 6.21484 57.2246 6.26225 57.3377 6.34926C57.4649 6.44704 57.6243 6.63487 57.7802 6.98696L59.6089 6.17711ZM56.9172 4.21484C56.3175 4.21484 55.7441 4.33208 55.2264 4.60053L56.147 6.37604C56.3324 6.2799 56.5793 6.21484 56.9172 6.21484V4.21484ZM55.2264 4.60053C54.6516 4.89855 54.2283 5.38313 53.924 5.95789L55.6916 6.89367C55.8561 6.58302 56.0187 6.44259 56.147 6.37604L55.2264 4.60053ZM53.9299 5.94693C53.626 6.50405 53.418 7.19051 53.2771 7.96565L55.2448 8.32342C55.3643 7.66626 55.5208 7.20689 55.6857 6.90463L53.9299 5.94693ZM53.2741 7.98304C53.1451 8.77109 53.0852 9.72122 53.0852 10.8203H55.0852C55.0852 9.78399 55.1424 8.95027 55.2478 8.30602L53.2741 7.98304ZM53.0852 10.8203V26.0547H55.0852V10.8203H53.0852ZM53.0852 26.0547C53.0852 27.1209 53.1315 28.0342 53.2305 28.7833L55.2133 28.5214C55.1299 27.8903 55.0852 27.0718 55.0852 26.0547H53.0852ZM53.2331 28.8016C53.3468 29.5551 53.5337 30.2295 53.827 30.7817L55.5933 29.8433C55.4439 29.5622 55.3053 29.1298 55.2107 28.5031L53.2331 28.8016ZM53.827 30.7817C54.125 31.3425 54.5453 31.8063 55.1092 32.0987L56.0298 30.3232C55.8907 30.251 55.738 30.1158 55.5933 29.8433L53.827 30.7817ZM55.1484 32.1179C55.6749 32.3624 56.262 32.4648 56.8781 32.4648V30.4648C56.4787 30.4648 56.1933 30.398 55.9906 30.3039L55.1484 32.1179ZM56.8781 32.4648C57.356 32.4648 57.8156 32.3585 58.2471 32.1521L57.3842 30.3479C57.2166 30.428 57.0513 30.4648 56.8781 30.4648V32.4648ZM58.2782 32.1366C58.7361 31.8977 59.1122 31.5494 59.4129 31.1249L57.7808 29.9689C57.6388 30.1694 57.4941 30.2898 57.3531 30.3634L58.2782 32.1366ZM59.4084 31.1312C59.7279 30.6874 59.9549 30.1675 60.1091 29.5968L58.1784 29.075C58.0722 29.4679 57.9346 29.7553 57.7853 29.9626L59.4084 31.1312ZM60.1043 29.614C60.28 29.0071 60.3586 28.3302 60.3586 27.5977H58.3586C58.3586 28.1933 58.294 28.6752 58.1832 29.0579L60.1043 29.614ZM60.3586 27.5977V24.3359H58.3586V27.5977H60.3586ZM59.3586 25.3359H63.9875V23.3359H59.3586V25.3359ZM62.9875 24.3359V27.4219H64.9875V24.3359H62.9875ZM62.9875 27.4219C62.9875 29.9766 62.4018 31.6539 61.4299 32.6671L62.8732 34.0516C64.3493 32.5128 64.9875 30.2318 64.9875 27.4219H62.9875ZM61.4299 32.6671C60.4442 33.6947 58.9776 34.281 56.8724 34.293L56.8838 36.293C59.362 36.2789 61.411 35.5761 62.8732 34.0516L61.4299 32.6671ZM74.3719 1.64062V0.640625H73.3719V1.64062H74.3719ZM86.7352 1.64062H87.7352V0.640625H86.7352V1.64062ZM86.7352 5.625V6.625H87.7352V5.625H86.7352ZM79.4305 5.625V4.625H78.4305V5.625H79.4305ZM79.4305 15.6055H78.4305V16.6055H79.4305V15.6055ZM85.075 15.6055H86.075V14.6055H85.075V15.6055ZM85.075 19.5898V20.5898H86.075V19.5898H85.075ZM79.4305 19.5898V18.5898H78.4305V19.5898H79.4305ZM79.4305 31.0156H78.4305V32.0156H79.4305V31.0156ZM86.9305 31.0156H87.9305V30.0156H86.9305V31.0156ZM86.9305 35V36H87.9305V35H86.9305ZM74.3719 35H73.3719V36H74.3719V35ZM74.3719 2.64062H86.7352V0.640625H74.3719V2.64062ZM85.7352 1.64062V5.625H87.7352V1.64062H85.7352ZM86.7352 4.625H79.4305V6.625H86.7352V4.625ZM78.4305 5.625V15.6055H80.4305V5.625H78.4305ZM79.4305 16.6055H85.075V14.6055H79.4305V16.6055ZM84.075 15.6055V19.5898H86.075V15.6055H84.075ZM85.075 18.5898H79.4305V20.5898H85.075V18.5898ZM78.4305 19.5898V31.0156H80.4305V19.5898H78.4305ZM79.4305 32.0156H86.9305V30.0156H79.4305V32.0156ZM85.9305 31.0156V35H87.9305V31.0156H85.9305ZM86.9305 34H74.3719V36H86.9305V34ZM75.3719 35V1.64062H73.3719V35H75.3719ZM96.9828 1.64062V0.640625H95.9828V1.64062H96.9828ZM104.444 1.71875L104.379 2.71668L104.444 1.71875ZM108.995 2.8125L108.554 3.71029L108.561 3.71366L108.568 3.71693L108.995 2.8125ZM110.791 4.14062L110.051 4.81249L110.059 4.82173L110.791 4.14062ZM112.022 6.23047L111.081 6.56867L111.084 6.5776L111.087 6.58646L112.022 6.23047ZM112.1 13.2617L111.156 12.9306L111.154 12.938L111.151 12.9455L112.1 13.2617ZM111.104 15.2344L111.906 15.8314L111.913 15.8225L111.104 15.2344ZM109.678 16.6406L110.242 17.4664L110.249 17.4618L110.256 17.457L109.678 16.6406ZM108.037 17.3828L107.811 16.4088L107.037 16.5887V17.3828H108.037ZM108.037 17.5391H107.037V18.3742L107.859 18.5231L108.037 17.5391ZM111.768 19.9023L110.931 20.4492L110.937 20.459L111.768 19.9023ZM112.627 29.6289L111.671 29.3377L111.668 29.3467L112.627 29.6289ZM111.514 31.9141L112.306 32.5246L112.312 32.5167L111.514 31.9141ZM107.608 34.4141L107.876 35.3774L107.884 35.3753L107.891 35.3732L107.608 34.4141ZM105.069 34.8828L105.155 35.8791L105.163 35.8784L105.17 35.8777L105.069 34.8828ZM96.9828 35H95.9828V36H96.9828V35ZM104.776 15.6836L105.045 16.6468L105.055 16.6439L105.065 16.6408L104.776 15.6836ZM106.202 14.9219L106.856 15.6776L106.858 15.676L106.202 14.9219ZM107.12 13.5742L106.189 13.2065L106.185 13.2182L107.12 13.5742ZM106.436 6.60156L105.672 7.24643L105.677 7.2533L105.683 7.26007L106.436 6.60156ZM105.03 5.66406L104.669 6.59686L104.682 6.60174L104.695 6.60628L105.03 5.66406ZM101.944 5.33203V4.33203H100.944V5.33203H101.944ZM101.944 15.918H100.944V16.918H101.944V15.918ZM105.225 31.2305L105.521 32.1858L105.528 32.1836L105.535 32.1813L105.225 31.2305ZM106.651 30.4102L107.333 31.1412L107.334 31.1404L106.651 30.4102ZM107.569 28.9844L106.636 28.624L106.632 28.6333L106.629 28.6426L107.569 28.9844ZM107.666 22.2852L106.697 22.5325L106.699 22.5376L107.666 22.2852ZM106.885 20.7617L106.121 21.4066L106.132 21.4195L106.143 21.432L106.885 20.7617ZM105.498 19.8242L105.138 20.757L105.147 20.7606L105.157 20.764L105.498 19.8242ZM101.944 19.4922V18.4922H100.944V19.4922H101.944ZM101.944 31.4844H100.944V32.4844H101.944V31.4844ZM96.9828 2.64062H102.1V0.640625H96.9828V2.64062ZM102.1 2.64062C102.832 2.64062 103.592 2.66588 104.379 2.71668L104.508 0.720825C103.681 0.667455 102.878 0.640625 102.1 0.640625V2.64062ZM104.379 2.71668C105.137 2.76558 105.875 2.86933 106.592 3.02736L107.022 1.07421C106.203 0.893691 105.365 0.776089 104.508 0.720825L104.379 2.71668ZM106.592 3.02736C107.284 3.17985 107.937 3.40772 108.554 3.71029L109.435 1.91471C108.672 1.54019 107.867 1.26025 107.022 1.07421L106.592 3.02736ZM108.568 3.71693C109.14 3.98687 109.632 4.35093 110.051 4.81244L111.532 3.46881C110.935 2.81053 110.229 2.28917 109.421 1.90807L108.568 3.71693ZM110.059 4.82173C110.475 5.26822 110.82 5.84266 111.081 6.56867L112.963 5.89227C112.625 4.95161 112.15 4.13282 111.524 3.45952L110.059 4.82173ZM111.087 6.58646C111.345 7.26314 111.491 8.12524 111.491 9.19922H113.491C113.491 7.95549 113.324 6.83842 112.956 5.87447L111.087 6.58646ZM111.491 9.19922V10.8203H113.491V9.19922H111.491ZM111.491 10.8203C111.491 11.607 111.375 12.3073 111.156 12.9306L113.044 13.5928C113.346 12.7318 113.491 11.8045 113.491 10.8203H111.491ZM111.151 12.9455C110.933 13.6005 110.646 14.1644 110.295 14.6462L111.913 15.8225C112.396 15.1585 112.772 14.4074 113.049 13.5779L111.151 12.9455ZM110.302 14.6374C109.944 15.1184 109.543 15.5114 109.101 15.8242L110.256 17.457C110.881 17.0146 111.431 16.4701 111.906 15.8314L110.302 14.6374ZM109.114 15.8148C108.67 16.1182 108.236 16.3099 107.811 16.4088L108.264 18.3568C108.959 18.1953 109.619 17.8922 110.242 17.4664L109.114 15.8148ZM107.037 17.3828V17.5391H109.037V17.3828H107.037ZM107.859 18.5231C109.273 18.7791 110.264 19.4281 110.931 20.4491L112.605 19.3556C111.605 17.8245 110.109 16.898 108.216 16.5551L107.859 18.5231ZM110.937 20.459C111.644 21.5143 112.037 22.9255 112.037 24.7656H114.037C114.037 22.6474 113.584 20.8165 112.599 19.3457L110.937 20.459ZM112.037 24.7656V26.4648H114.037V24.7656H112.037ZM112.037 26.4648C112.037 27.6041 111.908 28.5564 111.671 29.3377L113.584 29.9201C113.893 28.9045 114.037 27.7475 114.037 26.4648H112.037ZM111.668 29.3467C111.436 30.1341 111.115 30.7833 110.716 31.3115L112.312 32.5167C112.877 31.7688 113.297 30.8946 113.587 29.9111L111.668 29.3467ZM110.722 31.3036C110.314 31.8327 109.833 32.2637 109.276 32.6025L110.315 34.3116C111.086 33.843 111.75 33.2454 112.306 32.5246L110.722 31.3036ZM109.276 32.6025C108.69 32.9584 108.041 33.2435 107.325 33.4549L107.891 35.3732C108.763 35.1159 109.572 34.763 110.315 34.3116L109.276 32.6025ZM107.339 33.4508C106.605 33.6555 105.815 33.802 104.968 33.8879L105.17 35.8777C106.119 35.7814 107.022 35.6154 107.876 35.3774L107.339 33.4508ZM104.982 33.8866C104.114 33.9621 103.218 34 102.295 34V36C103.273 36 104.227 35.9598 105.155 35.8791L104.982 33.8866ZM102.295 34H96.9828V36H102.295V34ZM97.9828 35V1.64062H95.9828V35H97.9828ZM102.92 16.918C103.674 16.918 104.384 16.8311 105.045 16.6468L104.507 14.7204C104.048 14.8486 103.521 14.918 102.92 14.918V16.918ZM105.065 16.6408C105.742 16.4362 106.346 16.1196 106.856 15.6776L105.547 14.1662C105.275 14.4012 104.929 14.5925 104.486 14.7264L105.065 16.6408ZM106.858 15.676C107.397 15.2067 107.793 14.6159 108.054 13.9302L106.185 13.2182C106.03 13.6262 105.813 13.9339 105.545 14.1678L106.858 15.676ZM108.049 13.9419C108.329 13.2358 108.452 12.434 108.452 11.5625H106.452C106.452 12.2535 106.353 12.7928 106.19 13.2066L108.049 13.9419ZM108.452 11.5625V10.1953H106.452V11.5625H108.452ZM108.452 10.1953C108.452 9.35002 108.367 8.57217 108.185 7.87258L106.25 8.37742C106.38 8.87575 106.452 9.4781 106.452 10.1953H108.452ZM108.185 7.87258C107.994 7.14133 107.667 6.48974 107.189 5.94306L105.683 7.26007C105.934 7.54672 106.128 7.91076 106.25 8.37742L108.185 7.87258ZM107.2 5.95669C106.719 5.38649 106.094 4.98103 105.365 4.72185L104.695 6.60628C105.138 6.76376 105.45 6.9833 105.672 7.24643L107.2 5.95669ZM105.39 4.73126C104.669 4.45274 103.836 4.33203 102.92 4.33203V6.33203C103.672 6.33203 104.244 6.43267 104.669 6.59686L105.39 4.73126ZM102.92 4.33203H101.944V6.33203H102.92V4.33203ZM100.944 5.33203V15.918H102.944V5.33203H100.944ZM101.944 16.918H102.92V14.918H101.944V16.918ZM103.389 32.4844C104.149 32.4844 104.862 32.3895 105.521 32.1858L104.929 30.2752C104.494 30.41 103.984 30.4844 103.389 30.4844V32.4844ZM105.535 32.1813C106.219 31.9585 106.825 31.6152 107.333 31.1412L105.968 29.6791C105.695 29.9343 105.351 30.1378 104.915 30.2796L105.535 32.1813ZM107.334 31.1404C107.864 30.6446 108.252 30.0315 108.509 29.3261L106.629 28.6426C106.469 29.0831 106.245 29.4205 105.968 29.6799L107.334 31.1404ZM108.502 29.3448C108.778 28.6303 108.901 27.8255 108.901 26.9531H106.901C106.901 27.6432 106.803 28.1926 106.636 28.624L108.502 29.3448ZM108.901 26.9531V24.3555H106.901V26.9531H108.901ZM108.901 24.3555C108.901 23.5102 108.817 22.7323 108.634 22.0327L106.699 22.5376C106.829 23.0359 106.901 23.6383 106.901 24.3555H108.901ZM108.635 22.0378C108.445 21.294 108.117 20.6336 107.627 20.0914L106.143 21.432C106.382 21.6971 106.575 22.0524 106.697 22.5325L108.635 22.0378ZM107.649 20.1168C107.172 19.5514 106.557 19.1453 105.84 18.8844L105.157 20.764C105.585 20.9199 105.895 21.1387 106.121 21.4066L107.649 20.1168ZM105.859 18.8914C105.138 18.6129 104.304 18.4922 103.389 18.4922V20.4922C104.14 20.4922 104.713 20.5928 105.138 20.757L105.859 18.8914ZM103.389 18.4922H101.944V20.4922H103.389V18.4922ZM100.944 19.4922V31.4844H102.944V19.4922H100.944ZM101.944 32.4844H103.389V30.4844H101.944V32.4844ZM129.496 35.1562L129.64 34.1667L129.63 34.1652L129.62 34.164L129.496 35.1562ZM125.863 33.4766L125.191 34.2173L125.2 34.2254L125.21 34.2334L125.863 33.4766ZM124.359 31.4844L123.473 31.9484L123.479 31.9593L124.359 31.4844ZM123.324 28.457L122.347 28.6673L122.347 28.6695L123.324 28.457ZM123.324 8.02734L122.349 7.8048L122.348 7.81269L123.324 8.02734ZM124.398 5.01953L125.275 5.50037L125.278 5.49446L124.398 5.01953ZM125.902 3.06641L125.259 2.30099L125.25 2.3084L125.902 3.06641ZM127.68 1.97266L128.054 2.89982L128.064 2.89573L127.68 1.97266ZM132.875 1.46484L132.746 2.45644L132.757 2.45798L132.769 2.45923L132.875 1.46484ZM134.691 1.93359L134.31 2.85786L134.322 2.86281L134.334 2.86745L134.691 1.93359ZM136.469 3.00781L135.825 3.77324L135.836 3.78177L136.469 3.00781ZM137.992 4.94141L137.112 5.41635L137.115 5.42224L137.992 4.94141ZM139.047 7.96875L138.069 8.17901L138.072 8.19129L139.047 7.96875ZM139.047 28.418L140.021 28.6428L140.022 28.6405L139.047 28.418ZM137.973 31.4453L138.853 31.9203L138.856 31.9145L137.973 31.4453ZM136.43 33.4375L137.083 34.1943L137.085 34.1932L136.43 33.4375ZM134.652 34.6094L135.068 35.5191L135.076 35.5151L134.652 34.6094ZM132.523 31.2305L132.114 30.3179L132.102 30.3235L132.523 31.2305ZM133.441 30.3516L132.582 29.841L132.576 29.8511L132.57 29.8613L133.441 30.3516ZM133.988 28.7109L133.006 28.5255L133.004 28.533L133.003 28.5404L133.988 28.7109ZM133.988 8.26172L133.001 8.42321L133.003 8.43192L133.004 8.4406L133.988 8.26172ZM133.441 6.54297L132.558 7.01086L132.566 7.02655L132.575 7.04193L133.441 6.54297ZM132.523 5.60547L132.076 6.49998L132.089 6.50602L132.523 5.60547ZM128.969 6.54297L129.835 7.04197L129.842 7.03079L128.969 6.54297ZM128.402 8.26172L127.418 8.08283L127.417 8.09152L127.415 8.10023L128.402 8.26172ZM128.402 28.7109L127.416 28.8784L127.418 28.8891L127.42 28.8998L128.402 28.7109ZM128.969 30.3516L129.829 29.841L128.969 30.3516ZM131.234 34.293C130.757 34.293 130.226 34.2521 129.64 34.1667L129.352 36.1458C130.016 36.2427 130.644 36.293 131.234 36.293V34.293ZM129.62 34.164C129.099 34.0989 128.576 33.9516 128.049 33.7159L127.233 35.5419C127.929 35.8531 128.643 36.0574 129.372 36.1485L129.62 34.164ZM128.049 33.7159C127.536 33.487 127.025 33.1589 126.517 32.7197L125.21 34.2334C125.847 34.7838 126.521 35.2239 127.233 35.5419L128.049 33.7159ZM126.535 32.7358C126.076 32.3196 125.64 31.7524 125.239 31.0094L123.479 31.9593C123.964 32.857 124.531 33.6179 125.191 34.2173L126.535 32.7358ZM125.245 31.0204C124.868 30.3003 124.549 29.3814 124.301 28.2446L122.347 28.6695C122.621 29.9285 122.991 31.0278 123.474 31.9484L125.245 31.0204ZM124.302 28.2468C124.06 27.124 123.934 25.7592 123.934 24.1406H121.934C121.934 25.8554 122.067 27.3682 122.347 28.6673L124.302 28.2468ZM123.934 24.1406V12.3242H121.934V24.1406H123.934ZM123.934 12.3242C123.934 10.6913 124.061 9.33531 124.301 8.242L122.348 7.81269C122.067 9.08917 121.934 10.5977 121.934 12.3242H123.934ZM124.299 8.24988C124.558 7.11408 124.889 6.20461 125.275 5.50036L123.522 4.5387C123.022 5.44903 122.637 6.54478 122.349 7.80481L124.299 8.24988ZM125.278 5.49446C125.678 4.75462 126.108 4.20871 126.555 3.82442L125.25 2.3084C124.577 2.88765 124.005 3.64381 123.518 4.5446L125.278 5.49446ZM126.546 3.83177C127.049 3.40878 127.552 3.10284 128.054 2.89977L127.305 1.04555C126.583 1.33727 125.902 1.76049 125.259 2.30104L126.546 3.83177ZM128.064 2.89573C128.615 2.66639 129.147 2.52256 129.662 2.45679L129.409 0.472894C128.7 0.563382 127.995 0.75809 127.295 1.04958L128.064 2.89573ZM129.662 2.45679C130.239 2.38308 130.763 2.34766 131.234 2.34766V0.347656C130.664 0.347656 130.055 0.390354 129.409 0.472894L129.662 2.45679ZM131.234 2.34766C131.678 2.34766 132.181 2.38274 132.746 2.45644L133.004 0.473243C132.371 0.390696 131.781 0.347656 131.234 0.347656V2.34766ZM132.769 2.45923C133.281 2.51372 133.794 2.64495 134.31 2.85786L135.073 1.00933C134.391 0.72745 133.693 0.546173 132.981 0.470455L132.769 2.45923ZM134.334 2.86745C134.828 3.05676 135.326 3.35306 135.825 3.77317L137.112 2.24245C136.466 1.69903 135.779 1.27918 135.049 0.999737L134.334 2.86745ZM135.836 3.78177C136.285 4.14951 136.716 4.68218 137.112 5.41634L138.872 4.46647C138.383 3.56001 137.798 2.80362 137.102 2.23386L135.836 3.78177ZM137.115 5.42224C137.499 6.12118 137.823 7.03228 138.069 8.179L140.025 7.7585C139.75 6.48334 139.371 5.37621 138.869 4.46057L137.115 5.42224ZM138.072 8.19129C138.324 9.29419 138.457 10.6668 138.457 12.3242H140.457C140.457 10.5702 140.317 9.03915 140.022 7.74621L138.072 8.19129ZM138.457 12.3242V24.1406H140.457V12.3242H138.457ZM138.457 24.1406C138.457 25.7433 138.324 27.0906 138.072 28.1954L140.022 28.6405C140.316 27.3495 140.457 25.8452 140.457 24.1406H138.457ZM138.072 28.1931C137.813 29.316 137.481 30.2384 137.09 30.9762L138.856 31.9145C139.349 30.9856 139.734 29.8897 140.021 28.6428L138.072 28.1931ZM137.093 30.9704C136.696 31.7052 136.253 32.2674 135.775 32.6818L137.085 34.1932C137.778 33.5919 138.364 32.826 138.853 31.9202L137.093 30.9704ZM135.776 32.6807C135.264 33.1226 134.748 33.4604 134.228 33.7037L135.076 35.5151C135.781 35.1854 136.449 34.7419 137.083 34.1943L135.776 32.6807ZM134.237 33.6997C133.715 33.938 133.205 34.0916 132.705 34.1676L133.006 36.1449C133.704 36.0386 134.392 35.8276 135.068 35.5191L134.237 33.6997ZM132.705 34.1676C132.144 34.253 131.655 34.293 131.234 34.293V36.293C131.777 36.293 132.369 36.2418 133.006 36.1449L132.705 34.1676ZM131.234 32.4844C131.842 32.4844 132.421 32.3805 132.945 32.1375L132.102 30.3235C131.897 30.419 131.617 30.4844 131.234 30.4844V32.4844ZM132.932 32.143C133.535 31.873 133.991 31.415 134.313 30.8418L132.57 29.8613C132.424 30.1214 132.267 30.2494 132.114 30.318L132.932 32.143ZM134.301 30.8621C134.631 30.3068 134.844 29.6324 134.974 28.8815L133.003 28.5404C132.899 29.1437 132.747 29.563 132.582 29.841L134.301 30.8621ZM134.971 28.8963C135.117 28.1235 135.184 27.1904 135.184 26.1133H133.184C133.184 27.1195 133.12 27.9182 133.006 28.5255L134.971 28.8963ZM135.184 26.1133V10.9375H133.184V26.1133H135.184ZM135.184 10.9375C135.184 9.8348 135.117 8.87835 134.972 8.08283L133.004 8.4406C133.12 9.07738 133.184 9.90478 133.184 10.9375H135.184ZM134.975 8.10023C134.847 7.31538 134.636 6.61446 134.308 6.044L132.575 7.04193C132.741 7.33085 132.895 7.77577 133.001 8.42321L134.975 8.10023ZM134.325 6.07508C134.011 5.48166 133.563 4.99684 132.958 4.70492L132.089 6.50602C132.239 6.57868 132.403 6.71886 132.558 7.01086L134.325 6.07508ZM132.971 4.71104C132.441 4.44603 131.852 4.33203 131.234 4.33203V6.33203C131.607 6.33203 131.877 6.40033 132.076 6.4999L132.971 4.71104ZM131.234 4.33203C130.607 4.33203 130.01 4.44481 129.472 4.70492L130.341 6.50602C130.557 6.40155 130.846 6.33203 131.234 6.33203V4.33203ZM129.472 4.70492C128.873 4.99383 128.422 5.47136 128.096 6.05515L129.842 7.03079C130.01 6.72916 130.184 6.58169 130.341 6.50602L129.472 4.70492ZM128.102 6.044C127.778 6.60769 127.56 7.30185 127.418 8.08283L129.386 8.4406C129.505 7.78929 129.665 7.33762 129.835 7.04193L128.102 6.044ZM127.415 8.10023C127.287 8.88827 127.227 9.83841 127.227 10.9375H129.227C129.227 9.90118 129.284 9.06746 129.389 8.42321L127.415 8.10023ZM127.227 10.9375V26.1133H129.227V10.9375H127.227ZM127.227 26.1133C127.227 27.1868 127.287 28.1133 127.416 28.8784L129.388 28.5435C129.284 27.9284 129.227 27.1231 129.227 26.1133H127.227ZM127.42 28.8998C127.564 29.6463 127.783 30.3137 128.109 30.8621L129.829 29.841C129.659 29.5561 129.501 29.1297 129.384 28.5221L127.42 28.8998ZM128.109 30.8621C128.443 31.4248 128.901 31.8757 129.497 32.143L130.315 30.318C130.156 30.2467 129.989 30.1116 129.829 29.841L128.109 30.8621ZM129.497 32.143C130.029 32.3815 130.617 32.4844 131.234 32.4844V30.4844C130.836 30.4844 130.538 30.418 130.315 30.318L129.497 32.143ZM156.287 35.1562L156.431 34.1667L156.421 34.1652L156.411 34.164L156.287 35.1562ZM152.654 33.4766L151.982 34.2173L151.991 34.2254L152 34.2334L152.654 33.4766ZM151.15 31.4844L150.264 31.9484L150.27 31.9593L151.15 31.4844ZM150.115 28.457L149.137 28.6673L149.138 28.6695L150.115 28.457ZM150.115 8.02734L149.14 7.8048L149.138 7.81269L150.115 8.02734ZM151.189 5.01953L152.066 5.50037L152.069 5.49446L151.189 5.01953ZM152.693 3.06641L152.049 2.30099L152.041 2.3084L152.693 3.06641ZM154.47 1.97266L154.845 2.89982L154.855 2.89573L154.47 1.97266ZM159.666 1.46484L159.536 2.45644L159.548 2.45798L159.56 2.45923L159.666 1.46484ZM161.482 1.93359L161.1 2.85786L161.112 2.86281L161.124 2.86745L161.482 1.93359ZM163.259 3.00781L162.616 3.77324L162.626 3.78177L163.259 3.00781ZM164.783 4.94141L163.903 5.41635L163.906 5.42224L164.783 4.94141ZM165.837 7.96875L164.86 8.17901L164.863 8.19129L165.837 7.96875ZM165.837 28.418L166.812 28.6428L166.812 28.6405L165.837 28.418ZM164.763 31.4453L165.643 31.9203L165.646 31.9145L164.763 31.4453ZM163.22 33.4375L163.874 34.1943L163.875 34.1932L163.22 33.4375ZM161.443 34.6094L161.858 35.5191L161.867 35.5151L161.443 34.6094ZM159.314 31.2305L158.905 30.3179L158.893 30.3235L159.314 31.2305ZM160.232 30.3516L159.372 29.841L159.366 29.8511L159.36 29.8613L160.232 30.3516ZM160.779 28.7109L159.796 28.5255L159.795 28.533L159.794 28.5404L160.779 28.7109ZM160.779 8.26172L159.792 8.42321L159.793 8.43192L159.795 8.4406L160.779 8.26172ZM160.232 6.54297L159.348 7.01086L159.357 7.02655L159.365 7.04193L160.232 6.54297ZM159.314 5.60547L158.867 6.49998L158.879 6.50602L159.314 5.60547ZM155.759 6.54297L156.626 7.04197L156.632 7.03079L155.759 6.54297ZM155.193 8.26172L154.209 8.08283L154.208 8.09152L154.206 8.10023L155.193 8.26172ZM155.193 28.7109L154.207 28.8784L154.209 28.8891L154.211 28.8998L155.193 28.7109ZM155.759 30.3516L156.619 29.841L155.759 30.3516ZM158.025 34.293C157.547 34.293 157.017 34.2521 156.431 34.1667L156.142 36.1458C156.807 36.2427 157.435 36.293 158.025 36.293V34.293ZM156.411 34.164C155.89 34.0989 155.367 33.9516 154.839 33.7159L154.023 35.5419C154.72 35.8531 155.434 36.0574 156.163 36.1485L156.411 34.164ZM154.839 33.7159C154.327 33.487 153.816 33.1589 153.308 32.7197L152 34.2334C152.638 34.7838 153.312 35.2239 154.023 35.5419L154.839 33.7159ZM153.326 32.7358C152.867 32.3196 152.431 31.7524 152.03 31.0094L150.27 31.9593C150.754 32.857 151.321 33.6179 151.982 34.2173L153.326 32.7358ZM152.036 31.0204C151.659 30.3003 151.339 29.3814 151.092 28.2446L149.138 28.6695C149.411 29.9285 149.782 31.0278 150.264 31.9484L152.036 31.0204ZM151.092 28.2468C150.851 27.124 150.724 25.7592 150.724 24.1406H148.724C148.724 25.8554 148.858 27.3682 149.137 28.6673L151.092 28.2468ZM150.724 24.1406V12.3242H148.724V24.1406H150.724ZM150.724 12.3242C150.724 10.6913 150.851 9.33531 151.092 8.242L149.138 7.81269C148.858 9.08917 148.724 10.5977 148.724 12.3242H150.724ZM151.09 8.24988C151.349 7.11408 151.68 6.20461 152.066 5.50036L150.312 4.5387C149.813 5.44903 149.428 6.54478 149.14 7.80481L151.09 8.24988ZM152.069 5.49446C152.468 4.75462 152.899 4.20871 153.345 3.82442L152.041 2.3084C151.368 2.88765 150.795 3.64381 150.309 4.5446L152.069 5.49446ZM153.337 3.83177C153.84 3.40878 154.343 3.10284 154.845 2.89977L154.096 1.04555C153.374 1.33727 152.692 1.76049 152.049 2.30104L153.337 3.83177ZM154.855 2.89573C155.405 2.66639 155.937 2.52256 156.452 2.45679L156.199 0.472894C155.49 0.563382 154.785 0.75809 154.086 1.04958L154.855 2.89573ZM156.452 2.45679C157.03 2.38308 157.553 2.34766 158.025 2.34766V0.347656C157.455 0.347656 156.846 0.390354 156.199 0.472894L156.452 2.45679ZM158.025 2.34766C158.468 2.34766 158.971 2.38274 159.536 2.45644L159.795 0.473243C159.162 0.390696 158.571 0.347656 158.025 0.347656V2.34766ZM159.56 2.45923C160.072 2.51372 160.585 2.64495 161.1 2.85786L161.864 1.00933C161.181 0.72745 160.483 0.546173 159.771 0.470455L159.56 2.45923ZM161.124 2.86745C161.619 3.05676 162.116 3.35306 162.616 3.77317L163.903 2.24245C163.257 1.69903 162.569 1.27918 161.84 0.999737L161.124 2.86745ZM162.626 3.78177C163.076 4.14951 163.507 4.68218 163.903 5.41634L165.663 4.46647C165.174 3.56001 164.589 2.80362 163.893 2.23386L162.626 3.78177ZM163.906 5.42224C164.289 6.12118 164.613 7.03228 164.86 8.179L166.815 7.7585C166.541 6.48334 166.162 5.37621 165.66 4.46057L163.906 5.42224ZM164.863 8.19129C165.114 9.29419 165.248 10.6668 165.248 12.3242H167.248C167.248 10.5702 167.108 9.03915 166.812 7.74621L164.863 8.19129ZM165.248 12.3242V24.1406H167.248V12.3242H165.248ZM165.248 24.1406C165.248 25.7433 165.115 27.0906 164.863 28.1954L166.812 28.6405C167.107 27.3495 167.248 25.8452 167.248 24.1406H165.248ZM164.863 28.1931C164.604 29.316 164.272 30.2384 163.88 30.9762L165.646 31.9145C166.14 30.9856 166.524 29.8897 166.812 28.6428L164.863 28.1931ZM163.883 30.9704C163.487 31.7052 163.044 32.2674 162.565 32.6818L163.875 34.1932C164.569 33.5919 165.154 32.826 165.643 31.9202L163.883 30.9704ZM162.567 32.6807C162.055 33.1226 161.539 33.4604 161.019 33.7037L161.867 35.5151C162.571 35.1854 163.24 34.7419 163.874 34.1943L162.567 32.6807ZM161.028 33.6997C160.506 33.938 159.996 34.0916 159.496 34.1676L159.797 36.1449C160.495 36.0386 161.182 35.8276 161.858 35.5191L161.028 33.6997ZM159.496 34.1676C158.934 34.253 158.446 34.293 158.025 34.293V36.293C158.568 36.293 159.16 36.2418 159.797 36.1449L159.496 34.1676ZM158.025 32.4844C158.632 32.4844 159.212 32.3805 159.735 32.1375L158.893 30.3235C158.687 30.419 158.407 30.4844 158.025 30.4844V32.4844ZM159.723 32.143C160.325 31.873 160.781 31.415 161.104 30.8418L159.36 29.8613C159.214 30.1214 159.058 30.2494 158.905 30.318L159.723 32.143ZM161.092 30.8621C161.422 30.3068 161.634 29.6324 161.764 28.8815L159.794 28.5404C159.689 29.1437 159.537 29.563 159.372 29.841L161.092 30.8621ZM161.762 28.8963C161.907 28.1235 161.974 27.1904 161.974 26.1133H159.974C159.974 27.1195 159.911 27.9182 159.796 28.5255L161.762 28.8963ZM161.974 26.1133V10.9375H159.974V26.1133H161.974ZM161.974 10.9375C161.974 9.8348 161.907 8.87835 161.763 8.08283L159.795 8.4406C159.911 9.07738 159.974 9.90478 159.974 10.9375H161.974ZM161.766 8.10023C161.637 7.31538 161.427 6.61446 161.099 6.044L159.365 7.04193C159.532 7.33085 159.686 7.77577 159.792 8.42321L161.766 8.10023ZM161.116 6.07508C160.802 5.48166 160.354 4.99684 159.749 4.70492L158.879 6.50602C159.03 6.57868 159.194 6.71886 159.348 7.01086L161.116 6.07508ZM159.761 4.71104C159.231 4.44603 158.642 4.33203 158.025 4.33203V6.33203C158.397 6.33203 158.668 6.40033 158.867 6.4999L159.761 4.71104ZM158.025 4.33203C157.398 4.33203 156.801 4.44481 156.262 4.70492L157.132 6.50602C157.348 6.40155 157.636 6.33203 158.025 6.33203V4.33203ZM156.262 4.70492C155.664 4.99383 155.213 5.47136 154.886 6.05515L156.632 7.03079C156.801 6.72916 156.975 6.58169 157.132 6.50602L156.262 4.70492ZM154.893 6.044C154.568 6.60769 154.351 7.30185 154.209 8.08283L156.177 8.4406C156.295 7.78929 156.456 7.33762 156.626 7.04193L154.893 6.044ZM154.206 8.10023C154.077 8.88827 154.017 9.83841 154.017 10.9375H156.017C156.017 9.90118 156.074 9.06746 156.18 8.42321L154.206 8.10023ZM154.017 10.9375V26.1133H156.017V10.9375H154.017ZM154.017 26.1133C154.017 27.1868 154.077 28.1133 154.207 28.8784L156.179 28.5435C156.074 27.9284 156.017 27.1231 156.017 26.1133H154.017ZM154.211 28.8998C154.355 29.6463 154.574 30.3137 154.9 30.8621L156.619 29.841C156.45 29.5561 156.292 29.1297 156.175 28.5221L154.211 28.8998ZM154.9 30.8621C155.234 31.4248 155.692 31.8757 156.288 32.143L157.106 30.318C156.947 30.2467 156.78 30.1116 156.619 29.841L154.9 30.8621ZM156.288 32.143C156.82 32.3815 157.407 32.4844 158.025 32.4844V30.4844C157.627 30.4844 157.329 30.418 157.106 30.318L156.288 32.143ZM177.433 1.64062V0.640625H176.433V1.64062H177.433ZM182.491 1.64062H183.491V0.640625H182.491V1.64062ZM182.491 16.2109H181.491V17.2109H182.491V16.2109ZM182.648 16.2109V17.2109H183.327L183.577 16.5797L182.648 16.2109ZM188.429 1.64062V0.640625H187.75L187.499 1.27181L188.429 1.64062ZM193.468 1.64062L194.393 2.02155L194.961 0.640625H193.468V1.64062ZM187.023 17.2852L186.098 16.9042L185.943 17.2818L186.096 17.6602L187.023 17.2852ZM194.191 35V36H195.674L195.118 34.6249L194.191 35ZM188.78 35L187.848 35.3603L188.095 36H188.78V35ZM182.648 19.1211L183.581 18.7608L183.333 18.1211H182.648V19.1211ZM182.491 19.1211V18.1211H181.491V19.1211H182.491ZM182.491 35V36H183.491V35H182.491ZM177.433 35H176.433V36H177.433V35ZM177.433 2.64062H182.491V0.640625H177.433V2.64062ZM181.491 1.64062V16.2109H183.491V1.64062H181.491ZM182.491 17.2109H182.648V15.2109H182.491V17.2109ZM183.577 16.5797L189.358 2.00944L187.499 1.27181L181.718 15.8421L183.577 16.5797ZM188.429 2.64062H193.468V0.640625H188.429V2.64062ZM192.543 1.2597L186.098 16.9042L187.947 17.6661L194.393 2.02155L192.543 1.2597ZM186.096 17.6602L193.264 35.3751L195.118 34.6249L187.95 16.9101L186.096 17.6602ZM194.191 34H188.78V36H194.191V34ZM189.713 34.6397L183.581 18.7608L181.715 19.4814L187.848 35.3603L189.713 34.6397ZM182.648 18.1211H182.491V20.1211H182.648V18.1211ZM181.491 19.1211V35H183.491V19.1211H181.491ZM182.491 34H177.433V36H182.491V34ZM178.433 35V1.64062H176.433V35H178.433Z" fill="#E6E6E6"/>
</svg>
