<svg width="68" height="68" viewBox="0 0 68 68" fill="none" xmlns="http://www.w3.org/2000/svg">
<path d="M34 24.163C37.204 24.163 37.584 24.175 38.85 24.233C42.102 24.381 43.621 25.924 43.769 29.152C43.827 30.417 43.838 30.797 43.838 34.001C43.838 37.206 43.826 37.585 43.769 38.85C43.62 42.075 42.105 43.621 38.85 43.769C37.584 43.827 37.206 43.839 34 43.839C30.796 43.839 30.416 43.827 29.151 43.769C25.891 43.62 24.38 42.07 24.232 38.849C24.174 37.584 24.162 37.205 24.162 34C24.162 30.796 24.175 30.417 24.232 29.151C24.381 25.924 25.896 24.38 29.151 24.232C30.417 24.175 30.796 24.163 34 24.163ZM34 22C30.741 22 30.333 22.014 29.053 22.072C24.695 22.272 22.273 24.69 22.073 29.052C22.014 30.333 22 30.741 22 34C22 37.259 22.014 37.668 22.072 38.948C22.272 43.306 24.69 45.728 29.052 45.928C30.333 45.986 30.741 46 34 46C37.259 46 37.668 45.986 38.948 45.928C43.302 45.728 45.73 43.31 45.927 38.948C45.986 37.668 46 37.259 46 34C46 30.741 45.986 30.333 45.928 29.053C45.732 24.699 43.311 22.273 38.949 22.073C37.668 22.014 37.259 22 34 22V22ZM34 27.838C30.597 27.838 27.838 30.597 27.838 34C27.838 37.403 30.597 40.163 34 40.163C37.403 40.163 40.162 37.404 40.162 34C40.162 30.597 37.403 27.838 34 27.838ZM34 38C31.791 38 30 36.21 30 34C30 31.791 31.791 30 34 30C36.209 30 38 31.791 38 34C38 36.21 36.209 38 34 38ZM40.406 26.155C39.61 26.155 38.965 26.8 38.965 27.595C38.965 28.39 39.61 29.035 40.406 29.035C41.201 29.035 41.845 28.39 41.845 27.595C41.845 26.8 41.201 26.155 40.406 26.155Z" fill="url(#paint0_linear)"/>
<circle cx="34" cy="34" r="33.5" stroke="url(#paint1_linear)"/>
<defs>
<linearGradient id="paint0_linear" x1="20.9314" y1="27.9941" x2="48.4383" y2="39.9136" gradientUnits="userSpaceOnUse">
<stop offset="0.102185" stop-color="#D1AD4F"/>
<stop offset="0.328125" stop-color="#F8E376"/>
<stop offset="0.651042" stop-color="#946A20"/>
<stop offset="1" stop-color="#E8C451"/>
</linearGradient>
<linearGradient id="paint1_linear" x1="-3.02775" y1="16.9833" x2="74.9087" y2="50.7551" gradientUnits="userSpaceOnUse">
<stop offset="0.102185" stop-color="#D1AD4F"/>
<stop offset="0.328125" stop-color="#F8E376"/>
<stop offset="0.651042" stop-color="#946A20"/>
<stop offset="1" stop-color="#E8C451"/>
</linearGradient>
</defs>
</svg>
