<svg width="224" height="37" viewBox="0 0 224 37" fill="none" xmlns="http://www.w3.org/2000/svg">
<path d="M1.85156 1.64062V0.640625H0.851562V1.64062H1.85156ZM6.91016 1.64062H7.91016V0.640625H6.91016V1.64062ZM6.91016 35V36H7.91016V35H6.91016ZM1.85156 35H0.851562V36H1.85156V35ZM1.85156 2.64062H6.91016V0.640625H1.85156V2.64062ZM5.91016 1.64062V35H7.91016V1.64062H5.91016ZM6.91016 34H1.85156V36H6.91016V34ZM2.85156 35V1.64062H0.851562V35H2.85156ZM19.0328 1.64062V0.640625H18.0328V1.64062H19.0328ZM23.1344 1.64062L24.0746 1.30007L23.8357 0.640625H23.1344V1.64062ZM31.2203 23.9648L30.2801 24.3054L30.5189 24.9648H31.2203V23.9648ZM31.3375 23.9648V24.9648H32.4153L32.3347 23.8901L31.3375 23.9648ZM31.0055 20.0586L30.0075 20.122L30.0075 20.123L31.0055 20.0586ZM30.8102 1.64062V0.640625H29.8102V1.64062H30.8102ZM35.3414 1.64062H36.3414V0.640625H35.3414V1.64062ZM35.3414 35V36H36.3414V35H35.3414ZM31.2008 35L30.263 35.3471L30.5046 36H31.2008V35ZM23.1539 13.2617L24.0917 12.9146L23.85 12.2617H23.1539V13.2617ZM22.9977 13.2617V12.2617H21.9288L21.9999 13.3282L22.9977 13.2617ZM23.1539 15.1758L22.1583 15.2697L22.1585 15.2715L23.1539 15.1758ZM23.4664 20.8203L22.4669 20.8519L22.4669 20.8522L23.4664 20.8203ZM23.525 35V36H24.525V35H23.525ZM19.0328 35H18.0328V36H19.0328V35ZM19.0328 2.64062H23.1344V0.640625H19.0328V2.64062ZM22.1941 1.98118L30.2801 24.3054L32.1605 23.6243L24.0746 1.30007L22.1941 1.98118ZM31.2203 24.9648H31.3375V22.9648H31.2203V24.9648ZM32.3347 23.8901C32.2948 23.3586 32.2419 22.7701 32.1761 22.125L30.1864 22.3281C30.2508 22.9591 30.302 23.5294 30.3403 24.0396L32.3347 23.8901ZM32.1761 22.125C32.1125 21.5021 32.0549 20.7921 32.0034 19.9942L30.0075 20.123C30.0602 20.9396 30.1198 21.675 30.1864 22.3281L32.1761 22.125ZM32.0035 19.9952C31.952 19.1852 31.9068 18.2694 31.868 17.2472L29.8695 17.3231C29.9088 18.3582 29.9547 19.2914 30.0075 20.122L32.0035 19.9952ZM31.868 17.2472C31.8295 16.2339 31.8102 15.088 31.8102 13.8086H29.8102C29.8102 15.1073 29.8298 16.2791 29.8695 17.3231L31.868 17.2472ZM31.8102 13.8086V1.64062H29.8102V13.8086H31.8102ZM30.8102 2.64062H35.3414V0.640625H30.8102V2.64062ZM34.3414 1.64062V35H36.3414V1.64062H34.3414ZM35.3414 34H31.2008V36H35.3414V34ZM32.1386 34.6529L24.0917 12.9146L22.2161 13.6089L30.263 35.3471L32.1386 34.6529ZM23.1539 12.2617H22.9977V14.2617H23.1539V12.2617ZM21.9999 13.3282C22.0396 13.9248 22.0925 14.572 22.1583 15.2697L24.1495 15.0819C24.0851 14.3993 24.0338 13.7705 23.9954 13.1952L21.9999 13.3282ZM22.1585 15.2715C22.222 15.9317 22.2797 16.7187 22.3313 17.6344L24.3281 17.5219C24.2755 16.5886 24.216 15.774 24.1493 15.0801L22.1585 15.2715ZM22.3313 17.6344C22.3828 18.5484 22.428 19.6206 22.4669 20.8519L24.4659 20.7887C24.4267 19.5461 24.3808 18.4568 24.3281 17.5219L22.3313 17.6344ZM22.4669 20.8522C22.5055 22.0624 22.525 23.5096 22.525 25.1953H24.525C24.525 23.4957 24.5054 22.0261 24.4659 20.7884L22.4669 20.8522ZM22.525 25.1953V35H24.525V25.1953H22.525ZM23.525 34H19.0328V36H23.525V34ZM20.0328 35V1.64062H18.0328V35H20.0328ZM46.2922 26.2695L45.3031 26.1222L45.3018 26.1312L45.3006 26.1402L46.2922 26.2695ZM46.6828 24.2969V23.2969H45.895L45.7106 24.0628L46.6828 24.2969ZM50.6086 24.2969H51.6086V23.2969H50.6086V24.2969ZM50.7648 28.3008L49.776 28.45L49.7774 28.4591L49.779 28.4682L50.7648 28.3008ZM51.3117 30.0586L50.4222 30.5154L50.4296 30.5299L50.4376 30.5442L51.3117 30.0586ZM52.3273 31.1328L51.8168 31.9927L51.8325 32.002L51.8485 32.0107L52.3273 31.1328ZM56.0969 30.7031L56.8129 31.4013L56.8214 31.3923L56.0969 30.7031ZM56.7414 26.9531L55.752 27.0986L55.7545 27.1154L55.7575 27.132L56.7414 26.9531ZM56.3703 25.6445L55.4399 26.0111L55.4447 26.0231L55.4497 26.0351L56.3703 25.6445ZM55.6672 24.2969L54.8178 24.8248L54.8245 24.8353L55.6672 24.2969ZM54.5148 22.6953L55.2957 22.0706L55.288 22.061L55.2801 22.0516L54.5148 22.6953ZM49.2414 16.4258L48.4539 17.0421L48.4648 17.056L48.4761 17.0695L49.2414 16.4258ZM47.0734 12.8125L46.1498 13.1957L46.1512 13.1992L47.0734 12.8125ZM46.8195 5.85938L45.8848 5.5039L45.8805 5.51551L46.8195 5.85938ZM48.3234 3.47656L49.0375 4.17667L49.0443 4.16967L48.3234 3.47656ZM50.7258 1.91406L51.0839 2.84776L51.0907 2.84512L50.7258 1.91406ZM57.6594 1.97266L57.2669 2.89244L57.2713 2.89429L57.6594 1.97266ZM61.2531 5.89844L60.2894 6.16532L60.2919 6.1742L60.2945 6.18304L61.2531 5.89844ZM61.4484 10.4102L60.4663 10.2221L60.4647 10.2304L60.4632 10.2388L61.4484 10.4102ZM61.0773 12.4023V13.4023H61.9L62.0586 12.5951L61.0773 12.4023ZM57.1711 12.4023H56.1711V13.4023H57.1711V12.4023ZM56.4094 6.75781L55.5273 7.22904L55.5301 7.2341L56.4094 6.75781ZM51.8 6.13281L52.5433 6.80183L52.5514 6.79261L51.8 6.13281ZM51.1945 9.51172L50.2091 9.68163L50.2119 9.69803L50.2153 9.71432L51.1945 9.51172ZM51.507 10.5664L50.5786 10.9378L50.5877 10.9607L50.598 10.9831L51.507 10.5664ZM52.6789 12.4219L51.8827 13.027L51.8952 13.0433L51.9083 13.0591L52.6789 12.4219ZM58.5578 19.5312L59.3515 18.923L59.3403 18.9083L59.3285 18.894L58.5578 19.5312ZM61.0187 23.5547L60.1049 23.9608L60.1065 23.9643L61.0187 23.5547ZM61.3117 30.8203L60.3823 30.4511L60.378 30.4622L61.3117 30.8203ZM57.2297 34.7852L57.5684 35.7261L57.5794 35.722L57.2297 34.7852ZM50.1594 34.707L49.7817 35.633L49.7859 35.6347L50.1594 34.707ZM47.7766 33.1055L47.0267 33.7671L47.034 33.7752L47.7766 33.1055ZM46.5266 30.8398L45.5628 31.1067L45.5647 31.1136L45.5667 31.1204L46.5266 30.8398ZM47.175 28.2422C47.175 27.5616 47.2122 26.9479 47.2838 26.3989L45.3006 26.1402C45.216 26.789 45.175 27.4905 45.175 28.2422H47.175ZM47.2813 26.4168C47.3674 25.8384 47.4915 25.21 47.655 24.5309L45.7106 24.0628C45.5355 24.79 45.3992 25.4767 45.3031 26.1222L47.2813 26.4168ZM46.6828 25.2969H50.6086V23.2969H46.6828V25.2969ZM49.6086 24.2969V25.918H51.6086V24.2969H49.6086ZM49.6086 25.918C49.6086 26.853 49.6627 27.6988 49.776 28.45L51.7536 28.1515C51.6587 27.5225 51.6086 26.7798 51.6086 25.918H49.6086ZM49.779 28.4682C49.9085 29.2313 50.1167 29.9205 50.4222 30.5154L52.2013 29.6018C52.012 29.2331 51.8555 28.7505 51.7507 28.1334L49.779 28.4682ZM50.4376 30.5442C50.7745 31.1508 51.2321 31.6455 51.8168 31.9927L52.8379 30.273C52.5892 30.1253 52.3697 29.9039 52.1859 29.573L50.4376 30.5442ZM51.8485 32.0107C52.4574 32.3428 53.1517 32.4844 53.8898 32.4844V30.4844C53.404 30.4844 53.0566 30.3915 52.8062 30.2549L51.8485 32.0107ZM53.8898 32.4844C55.032 32.4844 56.0616 32.1717 56.8129 31.4012L55.3809 30.005C55.1165 30.2762 54.6748 30.4844 53.8898 30.4844V32.4844ZM56.8214 31.3923C57.5639 30.6118 57.8586 29.5527 57.8586 28.3789H55.8586C55.8586 29.2363 55.6455 29.7267 55.3723 30.0139L56.8214 31.3923ZM57.8586 28.3789C57.8586 27.8091 57.8159 27.2729 57.7253 26.7742L55.7575 27.132C55.8231 27.4927 55.8586 27.907 55.8586 28.3789H57.8586ZM57.7308 26.8076C57.6527 26.2771 57.505 25.7587 57.2909 25.254L55.4497 26.0351C55.6002 26.3897 55.6999 26.7438 55.752 27.0986L57.7308 26.8076ZM57.3007 25.278C57.1036 24.7777 56.8373 24.2709 56.5099 23.7585L54.8245 24.8353C55.096 25.2603 55.2985 25.652 55.4399 26.0111L57.3007 25.278ZM56.5165 23.7689C56.1907 23.2449 55.7818 22.6782 55.2957 22.0706L53.734 23.32C54.1854 23.8843 54.5447 24.3853 54.8179 24.8248L56.5165 23.7689ZM55.2801 22.0516L50.0067 15.7821L48.4761 17.0695L53.7496 23.339L55.2801 22.0516ZM50.0289 15.8095C49.1379 14.6709 48.464 13.5427 47.9956 12.4258L46.1512 13.1992C46.6985 14.5041 47.4699 15.7848 48.4539 17.0421L50.0289 15.8095ZM47.9971 12.4293C47.5418 11.3318 47.3117 10.1605 47.3117 8.90625H45.3117C45.3117 10.4124 45.5895 11.8452 46.1498 13.1957L47.9971 12.4293ZM47.3117 8.90625C47.3117 7.90234 47.465 7.00477 47.7585 6.20324L45.8805 5.51551C45.4969 6.56294 45.3117 7.69662 45.3117 8.90625H47.3117ZM47.7542 6.21482C48.06 5.41087 48.489 4.73609 49.0375 4.17663L47.6094 2.77649C46.8558 3.54516 46.2822 4.45892 45.8848 5.50393L47.7542 6.21482ZM49.0443 4.16967C49.5852 3.60709 50.2588 3.16421 51.0839 2.84774L50.3677 0.980388C49.2917 1.39308 48.3637 1.99187 47.6026 2.78345L49.0443 4.16967ZM51.0907 2.84512C51.92 2.52012 52.8805 2.34766 53.9875 2.34766V0.347656C52.6726 0.347656 51.4587 0.552797 50.3609 0.983005L51.0907 2.84512ZM53.9875 2.34766C55.3726 2.34766 56.4524 2.54492 57.2669 2.89243L58.0518 1.05288C56.9132 0.567059 55.5451 0.347656 53.9875 0.347656V2.34766ZM57.2713 2.89429C58.1472 3.26308 58.7992 3.72766 59.2665 4.26766L60.7788 2.9589C60.0743 2.14474 59.1507 1.51557 58.0474 1.05102L57.2713 2.89429ZM59.2665 4.26766C59.7573 4.83484 60.0954 5.46479 60.2894 6.16532L62.2169 5.63156C61.9421 4.63938 61.4599 3.74589 60.7788 2.9589L59.2665 4.26766ZM60.2945 6.18304C60.5152 6.92652 60.6242 7.67058 60.6242 8.41797H62.6242C62.6242 7.47265 62.4858 6.53703 62.2118 5.61384L60.2945 6.18304ZM60.6242 8.41797C60.6242 9.08014 60.57 9.68046 60.4663 10.2221L62.4306 10.5982C62.5613 9.91589 62.6242 9.18809 62.6242 8.41797H60.6242ZM60.4632 10.2388C60.3605 10.8293 60.2382 11.4861 60.0961 12.2096L62.0586 12.5951C62.2029 11.8603 62.328 11.189 62.4336 10.5815L60.4632 10.2388ZM61.0773 11.4023H57.1711V13.4023H61.0773V11.4023ZM58.1711 12.4023V10.8203H56.1711V12.4023H58.1711ZM58.1711 10.8203C58.1711 8.98028 57.9117 7.43184 57.2887 6.28153L55.5301 7.2341C55.9226 7.95879 56.1711 9.11868 56.1711 10.8203H58.1711ZM57.2914 6.2866C56.961 5.66814 56.503 5.16422 55.9067 4.8215C55.3138 4.48068 54.6415 4.33203 53.9289 4.33203V6.33203C54.3622 6.33203 54.6762 6.42101 54.9101 6.55546C55.1406 6.68799 55.35 6.89697 55.5274 7.22903L57.2914 6.2866ZM53.9289 4.33203C52.7931 4.33203 51.7657 4.65629 51.0486 5.47301L52.5514 6.79261C52.7718 6.54163 53.1637 6.33203 53.9289 6.33203V4.33203ZM51.0567 5.46385C50.3825 6.21294 50.0969 7.17719 50.0969 8.24219H52.0969C52.0969 7.53635 52.28 7.09436 52.5433 6.80178L51.0567 5.46385ZM50.0969 8.24219C50.0969 8.7558 50.1324 9.23714 50.2091 9.68163L52.18 9.34181C52.1264 9.03109 52.0969 8.66607 52.0969 8.24219H50.0969ZM50.2153 9.71432C50.3042 10.1439 50.4244 10.5525 50.5786 10.9378L52.4355 10.195C52.3292 9.92926 52.2412 9.63472 52.1738 9.30911L50.2153 9.71432ZM50.598 10.9831C50.7626 11.3422 50.956 11.6914 51.1772 12.0306L52.8525 10.9381C52.6831 10.6784 52.5379 10.4156 52.4161 10.1498L50.598 10.9831ZM51.1772 12.0306C51.3873 12.3528 51.6228 12.685 51.8827 13.027L53.4751 11.8168C53.2402 11.5077 53.033 11.2149 52.8525 10.9381L51.1772 12.0306ZM51.9083 13.0591L57.7872 20.1685L59.3285 18.894L53.4496 11.7846L51.9083 13.0591ZM57.7641 20.1395C58.7951 21.4848 59.5706 22.7586 60.1049 23.9608L61.9326 23.1485C61.3211 21.7727 60.456 20.3641 59.3515 18.923L57.7641 20.1395ZM60.1065 23.9643C60.6202 25.1084 60.8781 26.3226 60.8781 27.6172H62.8781C62.8781 26.0472 62.5632 24.5531 61.931 23.1451L60.1065 23.9643ZM60.8781 27.6172C60.8781 28.6954 60.7065 29.6352 60.3824 30.4511L62.2411 31.1895C62.6721 30.1044 62.8781 28.9087 62.8781 27.6172H60.8781ZM60.378 30.4622C60.0626 31.2845 59.6141 31.9656 59.0363 32.5216L60.4231 33.9628C61.2255 33.1906 61.8316 32.2571 62.2454 31.1784L60.378 30.4622ZM59.0363 32.5216C58.4532 33.0827 57.7398 33.5273 56.8799 33.8483L57.5794 35.722C58.6727 35.3138 59.626 34.7298 60.4231 33.9628L59.0363 32.5216ZM56.891 33.8443C56.0406 34.1504 55.0576 34.3125 53.9289 34.3125V36.3125C55.2481 36.3125 56.4657 36.123 57.5684 35.726L56.891 33.8443ZM53.9289 34.3125C52.4992 34.3125 51.3796 34.1203 50.5328 33.7794L49.7859 35.6347C50.9443 36.101 52.3377 36.3125 53.9289 36.3125V34.3125ZM50.5371 33.7811C49.66 33.4233 48.9995 32.9683 48.5191 32.4357L47.034 33.7752C47.7515 34.5708 48.6796 35.1834 49.7817 35.633L50.5371 33.7811ZM48.5264 32.4438C48.0371 31.8894 47.6924 31.2641 47.4864 30.5593L45.5667 31.1204C45.8555 32.1083 46.3441 32.9935 47.0267 33.7671L48.5264 32.4438ZM47.4903 30.573C47.2802 29.8142 47.175 29.0382 47.175 28.2422H45.175C45.175 29.217 45.3042 30.1727 45.5628 31.1067L47.4903 30.573ZM75.6219 5.625H76.6219V4.625H75.6219V5.625ZM70.2508 5.625H69.2508V6.625H70.2508V5.625ZM70.2508 1.64062V0.640625H69.2508V1.64062H70.2508ZM86.032 1.64062H87.032V0.640625H86.032V1.64062ZM86.032 5.625V6.625H87.032V5.625H86.032ZM80.6805 5.625V4.625H79.6805V5.625H80.6805ZM80.6805 35V36H81.6805V35H80.6805ZM75.6219 35H74.6219V36H75.6219V35ZM75.6219 4.625H70.2508V6.625H75.6219V4.625ZM71.2508 5.625V1.64062H69.2508V5.625H71.2508ZM70.2508 2.64062H86.032V0.640625H70.2508V2.64062ZM85.032 1.64062V5.625H87.032V1.64062H85.032ZM86.032 4.625H80.6805V6.625H86.032V4.625ZM79.6805 5.625V35H81.6805V5.625H79.6805ZM80.6805 34H75.6219V36H80.6805V34ZM76.6219 35V5.625H74.6219V35H76.6219ZM99.5219 1.64062V0.640625H98.6894L98.5385 1.45926L99.5219 1.64062ZM105.342 1.64062L106.325 1.4587L106.174 0.640625H105.342V1.64062ZM111.514 35V36H112.716L112.497 34.8181L111.514 35ZM106.397 35L105.408 35.1518L105.539 36H106.397V35ZM105.479 29.0234L106.467 28.8716L106.337 28.0234H105.479V29.0234ZM99.3852 29.0234V28.0234H98.5215L98.3958 28.8779L99.3852 29.0234ZM98.5062 35V36H99.3699L99.4956 35.1455L98.5062 35ZM93.3695 35L92.3861 34.8186L92.1682 36H93.3695V35ZM104.893 25.2148V26.2148H106.044L105.883 25.0752L104.893 25.2148ZM102.549 8.59375L103.539 8.45412L103.418 7.59375H102.549V8.59375ZM102.334 8.59375V7.59375H101.467L101.344 8.45298L102.334 8.59375ZM99.9711 25.2148L98.981 25.0741L98.8188 26.2148H99.9711V25.2148ZM99.5219 2.64062H105.342V0.640625H99.5219V2.64062ZM104.359 1.82255L110.531 35.1819L112.497 34.8181L106.325 1.4587L104.359 1.82255ZM111.514 34H106.397V36H111.514V34ZM107.385 34.8482L106.467 28.8716L104.49 29.1753L105.408 35.1518L107.385 34.8482ZM105.479 28.0234H99.3852V30.0234H105.479V28.0234ZM98.3958 28.8779L97.5169 34.8545L99.4956 35.1455L100.375 29.1689L98.3958 28.8779ZM98.5062 34H93.3695V36H98.5062V34ZM94.3529 35.1814L100.505 1.82199L98.5385 1.45926L92.3861 34.8186L94.3529 35.1814ZM105.883 25.0752L103.539 8.45412L101.559 8.73338L103.903 25.3545L105.883 25.0752ZM102.549 7.59375H102.334V9.59375H102.549V7.59375ZM101.344 8.45298L98.981 25.0741L100.961 25.3556L103.324 8.73452L101.344 8.45298ZM99.9711 26.2148H104.893V24.2148H99.9711V26.2148ZM126.527 35.1758L126.7 34.1908L126.688 34.1887L126.676 34.1868L126.527 35.1758ZM124.906 34.6484L124.459 35.5429L124.467 35.547L124.906 34.6484ZM123.285 33.4961L122.596 34.2207L122.605 34.2295L123.285 33.4961ZM121.84 31.5039L120.945 31.9511L120.95 31.9596L120.954 31.9679L121.84 31.5039ZM120.824 28.457L119.847 28.6673L119.847 28.6695L120.824 28.457ZM120.844 8.02734L121.818 8.2522L121.819 8.24988L120.844 8.02734ZM121.938 5.01953L122.808 5.51114L122.812 5.50517L121.938 5.01953ZM123.5 3.06641L122.873 2.28715L122.865 2.29398L123.5 3.06641ZM125.355 1.97266L125.717 2.90502L125.725 2.90183L125.733 2.8985L125.355 1.97266ZM132.406 1.91406L132.028 2.83982L132.036 2.84301L132.044 2.84607L132.406 1.91406ZM134.672 3.4375L133.921 4.09813L133.928 4.10609L133.935 4.1139L134.672 3.4375ZM135.922 5.68359L134.961 5.96026L134.965 5.9736L135.922 5.68359ZM136.176 10.4102L135.187 10.2628L135.185 10.2718L135.184 10.2808L136.176 10.4102ZM135.844 12.4023V13.4023H136.666L136.825 12.5951L135.844 12.4023ZM131.801 12.4023H130.801V13.4023H131.801V12.4023ZM126.488 6.54297L127.344 7.06132L127.35 7.04999L126.488 6.54297ZM125.902 8.26172L124.918 8.08283L124.917 8.09152L124.915 8.10023L125.902 8.26172ZM125.902 28.6523L124.916 28.8198L124.918 28.8288L124.92 28.8378L125.902 28.6523ZM126.469 30.3125L125.609 30.823L125.615 30.8328L125.621 30.8425L126.469 30.3125ZM127.426 31.2109L126.991 32.1115L127.009 32.1204L127.028 32.1285L127.426 31.2109ZM130.258 31.0352L130.837 31.8507L130.845 31.8445L130.854 31.8383L130.258 31.0352ZM131.82 28.0273L130.838 27.8419L130.836 27.8509L130.834 27.8599L131.82 28.0273ZM132.016 21.4258H133.016V20.4258H132.016V21.4258ZM129.418 21.4258H128.418V22.4258H129.418V21.4258ZM129.418 18.1055V17.1055H128.418V18.1055H129.418ZM136.938 18.1055H137.938V17.1055H136.938V18.1055ZM136.938 35V36H137.938V35H136.938ZM133.578 35L132.593 35.1703L132.736 36H133.578V35ZM133.031 31.8359L134.017 31.6656L133.509 28.7283L132.143 31.3775L133.031 31.8359ZM130.824 34.5117L131.37 35.3499L131.373 35.3478L130.824 34.5117ZM127.895 34.3125C127.578 34.3125 127.182 34.2752 126.7 34.1908L126.355 36.1608C126.914 36.2587 127.43 36.3125 127.895 36.3125V34.3125ZM126.676 34.1868C126.272 34.1263 125.83 33.9865 125.345 33.7499L124.467 35.547C125.103 35.8572 125.741 36.069 126.379 36.1647L126.676 34.1868ZM125.353 33.754C124.906 33.5301 124.442 33.2049 123.965 32.7627L122.605 34.2295C123.196 34.7769 123.813 35.2199 124.459 35.5429L125.353 33.754ZM123.974 32.7715C123.537 32.3558 123.117 31.787 122.726 31.0399L120.954 31.9679C121.422 32.8614 121.965 33.6208 122.596 34.2207L123.974 32.7715ZM122.734 31.0567C122.364 30.317 122.049 29.3851 121.801 28.2446L119.847 28.6695C120.12 29.9248 120.482 31.0241 120.945 31.9511L122.734 31.0567ZM121.802 28.2468C121.56 27.124 121.434 25.7592 121.434 24.1406H119.434C119.434 25.8554 119.567 27.3682 119.847 28.6673L121.802 28.2468ZM121.434 24.1406V12.3242H119.434V24.1406H121.434ZM121.434 12.3242C121.434 10.6938 121.567 9.34142 121.818 8.2522L119.869 7.80248C119.574 9.08305 119.434 10.5953 119.434 12.3242H121.434ZM121.819 8.24988C122.077 7.11754 122.413 6.21198 122.808 5.51113L121.067 4.52794C120.551 5.44167 120.157 6.54131 119.869 7.80481L121.819 8.24988ZM122.812 5.50517C123.22 4.76946 123.666 4.22443 124.135 3.83883L122.865 2.29398C122.162 2.87193 121.566 3.62897 121.063 4.53389L122.812 5.50517ZM124.127 3.84562C124.655 3.42038 125.186 3.11102 125.717 2.90502L124.994 1.04029C124.249 1.32908 123.542 1.74889 122.873 2.28719L124.127 3.84562ZM125.733 2.8985C126.298 2.6682 126.844 2.52338 127.374 2.45712L127.126 0.472566C126.406 0.562557 125.689 0.756284 124.978 1.04681L125.733 2.8985ZM127.374 2.45712C127.965 2.38325 128.502 2.34766 128.988 2.34766V0.347656C128.406 0.347656 127.785 0.390184 127.126 0.472566L127.374 2.45712ZM128.988 2.34766C130.256 2.34766 131.258 2.52533 132.028 2.83982L132.784 0.988308C131.705 0.547588 130.429 0.347656 128.988 0.347656V2.34766ZM132.044 2.84607C132.856 3.1619 133.47 3.58524 133.921 4.09813L135.423 2.77687C134.728 1.98768 133.832 1.39539 132.769 0.982058L132.044 2.84607ZM133.935 4.1139C134.413 4.6341 134.755 5.24473 134.961 5.96024L136.883 5.40695C136.594 4.40371 136.103 3.51694 135.408 2.7611L133.935 4.1139ZM134.965 5.9736C135.195 6.73233 135.312 7.54552 135.312 8.41797H137.312C137.312 7.36333 137.17 6.35361 136.879 5.39359L134.965 5.9736ZM135.312 8.41797C135.312 9.0923 135.27 9.70652 135.187 10.2628L137.165 10.5575C137.264 9.88983 137.312 9.17593 137.312 8.41797H135.312ZM135.184 10.2808C135.109 10.8544 135.002 11.4969 134.863 12.2096L136.825 12.5951C136.971 11.8495 137.086 11.1639 137.167 10.5395L135.184 10.2808ZM135.844 11.4023H131.801V13.4023H135.844V11.4023ZM132.801 12.4023V10.8203H130.801V12.4023H132.801ZM132.801 10.8203C132.801 8.93401 132.553 7.3633 131.944 6.23075C131.632 5.64952 131.213 5.16292 130.669 4.82526C130.122 4.48581 129.504 4.33203 128.852 4.33203V6.33203C129.182 6.33203 129.425 6.40693 129.615 6.52483C129.808 6.64454 130.003 6.84397 130.183 7.17745C130.557 7.87433 130.801 9.04776 130.801 10.8203H132.801ZM128.852 4.33203C128.206 4.33203 127.593 4.44228 127.042 4.69929L127.888 6.51165C128.118 6.40407 128.43 6.33203 128.852 6.33203V4.33203ZM127.042 4.69929C126.435 4.98247 125.969 5.45292 125.626 6.03595L127.35 7.04999C127.528 6.7476 127.713 6.59305 127.888 6.51165L127.042 4.69929ZM125.633 6.02467C125.288 6.5943 125.062 7.29586 124.918 8.08283L126.886 8.4406C127.004 7.79528 127.168 7.35101 127.343 7.06127L125.633 6.02467ZM124.915 8.10023C124.787 8.88827 124.727 9.83841 124.727 10.9375H126.727C126.727 9.90118 126.784 9.06746 126.889 8.42321L124.915 8.10023ZM124.727 10.9375V26.0547H126.727V10.9375H124.727ZM124.727 26.0547C124.727 27.1282 124.787 28.0547 124.916 28.8198L126.888 28.4849C126.784 27.8698 126.727 27.0645 126.727 26.0547H124.727ZM124.92 28.8378C125.063 29.5956 125.282 30.2718 125.609 30.823L127.329 29.802C127.161 29.5199 127.002 29.0893 126.885 28.4669L124.92 28.8378ZM125.621 30.8425C125.964 31.3912 126.416 31.8339 126.991 32.1115L127.861 30.3104C127.68 30.2234 127.495 30.0671 127.317 29.7825L125.621 30.8425ZM127.028 32.1285C127.572 32.3641 128.175 32.4648 128.812 32.4648V30.4648C128.382 30.4648 128.061 30.3963 127.823 30.2934L127.028 32.1285ZM128.812 32.4648C129.551 32.4648 130.242 32.2725 130.837 31.8507L129.679 30.2196C129.466 30.3707 129.193 30.4648 128.812 30.4648V32.4648ZM130.854 31.8383C131.396 31.4356 131.823 30.9064 132.144 30.2805L130.364 29.3679C130.164 29.7577 129.927 30.0358 129.662 30.2321L130.854 31.8383ZM132.144 30.2805C132.46 29.664 132.676 28.9636 132.806 28.1948L130.834 27.8599C130.731 28.4713 130.569 28.9688 130.364 29.3679L132.144 30.2805ZM132.803 28.2128C132.946 27.4533 133.016 26.6417 133.016 25.7812H131.016C131.016 26.5353 130.955 27.2212 130.838 27.8419L132.803 28.2128ZM133.016 25.7812V21.4258H131.016V25.7812H133.016ZM132.016 20.4258H129.418V22.4258H132.016V20.4258ZM130.418 21.4258V18.1055H128.418V21.4258H130.418ZM129.418 19.1055H136.938V17.1055H129.418V19.1055ZM135.938 18.1055V35H137.938V18.1055H135.938ZM136.938 34H133.578V36H136.938V34ZM134.564 34.8297L134.017 31.6656L132.046 32.0063L132.593 35.1703L134.564 34.8297ZM132.143 31.3775C131.554 32.519 130.919 33.2534 130.276 33.6757L131.373 35.3478C132.396 34.6763 133.233 33.6268 133.92 32.2943L132.143 31.3775ZM130.279 33.6736C129.645 34.086 128.865 34.3125 127.895 34.3125V36.3125C129.19 36.3125 130.363 36.0052 131.37 35.3499L130.279 33.6736ZM148.025 1.64062V0.640625H147.025V1.64062H148.025ZM155.564 1.71875L155.494 2.7163L155.495 2.71638L155.564 1.71875ZM157.81 2.10938L157.54 3.07216L157.55 3.07494L157.56 3.07752L157.81 2.10938ZM159.978 3.00781L159.473 3.87103L159.48 3.87507L159.978 3.00781ZM161.834 4.66797L161.037 5.27272L161.044 5.28191L161.834 4.66797ZM163.142 7.32422L162.186 7.61585L162.187 7.61913L163.142 7.32422ZM162.537 18.2227L163.446 18.6398L163.447 18.637L162.537 18.2227ZM159.314 21.6602L158.87 20.7641L158.042 21.1745L158.386 22.0325L159.314 21.6602ZM164.666 35V36H166.144L165.594 34.6277L164.666 35ZM159.314 35L158.372 35.3347L158.608 36H159.314V35ZM154.88 22.5195L155.823 22.1848L155.586 21.5195H154.88V22.5195ZM152.986 22.5195V21.5195H151.986V22.5195H152.986ZM152.986 35V36H153.986V35H152.986ZM148.025 35H147.025V36H148.025V35ZM157.478 17.5977L158.248 18.2357L158.257 18.225L157.478 17.5977ZM158.298 15.7617L159.274 15.9804L159.275 15.9769L158.298 15.7617ZM157.517 6.52344L156.775 7.19372L156.781 7.20021L156.787 7.20659L157.517 6.52344ZM152.986 5.33203V4.33203H151.986V5.33203H152.986ZM152.986 18.8672H151.986V19.8672H152.986V18.8672ZM148.025 2.64062H153.513V0.640625H148.025V2.64062ZM153.513 2.64062C154.111 2.64062 154.771 2.66555 155.494 2.7163L155.634 0.721203C154.873 0.667782 154.166 0.640625 153.513 0.640625V2.64062ZM155.495 2.71638C156.181 2.76368 156.862 2.88196 157.54 3.07216L158.08 1.14659C157.274 0.920127 156.457 0.77799 155.633 0.72112L155.495 2.71638ZM157.56 3.07752C158.223 3.24918 158.861 3.51274 159.473 3.871L160.483 2.14462C159.715 1.6956 158.907 1.3602 158.061 1.14123L157.56 3.07752ZM159.48 3.87507C160.057 4.20634 160.577 4.66662 161.037 5.27268L162.63 4.06326C162.022 3.26307 161.305 2.61658 160.476 2.14056L159.48 3.87507ZM161.044 5.28191C161.5 5.86775 161.887 6.63647 162.186 7.61584L164.099 7.03259C163.746 5.87655 163.261 4.87444 162.623 4.05403L161.044 5.28191ZM162.187 7.61913C162.474 8.55043 162.63 9.72735 162.63 11.1719H164.63C164.63 9.59557 164.461 8.20739 164.098 7.0293L162.187 7.61913ZM162.63 11.1719V12.0117H164.63V11.1719H162.63ZM162.63 12.0117C162.63 14.4663 162.276 16.3812 161.627 17.8083L163.447 18.637C164.255 16.861 164.63 14.6353 164.63 12.0117H162.63ZM161.628 17.8055C160.984 19.2088 160.063 20.1733 158.87 20.7641L159.758 22.5562C161.404 21.7407 162.631 20.4136 163.446 18.6398L161.628 17.8055ZM158.386 22.0325L163.738 35.3723L165.594 34.6277L160.242 21.2878L158.386 22.0325ZM164.666 34H159.314V36H164.666V34ZM160.256 34.6653L155.823 22.1848L153.938 22.8543L158.372 35.3347L160.256 34.6653ZM154.88 21.5195H152.986V23.5195H154.88V21.5195ZM151.986 22.5195V35H153.986V22.5195H151.986ZM152.986 34H148.025V36H152.986V34ZM149.025 35V1.64062H147.025V35H149.025ZM153.748 19.8672C154.7 19.8672 155.558 19.7629 156.298 19.5269L155.69 17.6216C155.205 17.7761 154.566 17.8672 153.748 17.8672V19.8672ZM156.298 19.5269C157.076 19.2786 157.738 18.8513 158.248 18.2357L156.708 16.9596C156.463 17.2555 156.136 17.4792 155.69 17.6216L156.298 19.5269ZM158.257 18.225C158.754 17.6078 159.081 16.8438 159.274 15.9804L157.323 15.543C157.178 16.19 156.957 16.65 156.699 16.9703L158.257 18.225ZM159.275 15.9769C159.465 15.1153 159.552 14.0941 159.552 12.9297H157.552C157.552 14.0049 157.471 14.8717 157.322 15.5465L159.275 15.9769ZM159.552 12.9297V10.293H157.552V12.9297H159.552ZM159.552 10.293C159.552 9.37718 159.47 8.5495 159.288 7.82387L157.348 8.30894C157.479 8.83331 157.552 9.49 157.552 10.293H159.552ZM159.288 7.82387C159.098 7.06148 158.759 6.38719 158.247 5.84028L156.787 7.20659C157.03 7.46698 157.226 7.82134 157.348 8.30894L159.288 7.82387ZM158.259 5.85315C157.756 5.29631 157.106 4.91161 156.356 4.67234L155.748 6.57766C156.223 6.72902 156.549 6.94327 156.775 7.19372L158.259 5.85315ZM156.356 4.67234C155.613 4.4352 154.734 4.33203 153.748 4.33203V6.33203C154.61 6.33203 155.267 6.42418 155.748 6.57766L156.356 4.67234ZM153.748 4.33203H152.986V6.33203H153.748V4.33203ZM151.986 5.33203V18.8672H153.986V5.33203H151.986ZM152.986 19.8672H153.748V17.8672H152.986V19.8672ZM178.566 1.64062V0.640625H177.733L177.582 1.45926L178.566 1.64062ZM184.386 1.64062L185.369 1.4587L185.218 0.640625H184.386V1.64062ZM190.558 35V36H191.76L191.541 34.8181L190.558 35ZM185.441 35L184.452 35.1518L184.582 36H185.441V35ZM184.523 29.0234L185.511 28.8716L185.381 28.0234H184.523V29.0234ZM178.429 29.0234V28.0234H177.565L177.44 28.8779L178.429 29.0234ZM177.55 35V36H178.414L178.539 35.1455L177.55 35ZM172.413 35L171.43 34.8186L171.212 36H172.413V35ZM183.937 25.2148V26.2148H185.088L184.927 25.0752L183.937 25.2148ZM181.593 8.59375L182.583 8.45412L182.462 7.59375H181.593V8.59375ZM181.378 8.59375V7.59375H180.51L180.388 8.45298L181.378 8.59375ZM179.015 25.2148L178.025 25.0741L177.863 26.2148H179.015V25.2148ZM178.566 2.64062H184.386V0.640625H178.566V2.64062ZM183.403 1.82255L189.575 35.1819L191.541 34.8181L185.369 1.4587L183.403 1.82255ZM190.558 34H185.441V36H190.558V34ZM186.429 34.8482L185.511 28.8716L183.534 29.1753L184.452 35.1518L186.429 34.8482ZM184.523 28.0234H178.429V30.0234H184.523V28.0234ZM177.44 28.8779L176.561 34.8545L178.539 35.1455L179.418 29.1689L177.44 28.8779ZM177.55 34H172.413V36H177.55V34ZM173.397 35.1814L179.549 1.82199L177.582 1.45926L171.43 34.8186L173.397 35.1814ZM184.927 25.0752L182.583 8.45412L180.603 8.73338L182.947 25.3545L184.927 25.0752ZM181.593 7.59375H181.378V9.59375H181.593V7.59375ZM180.388 8.45298L178.025 25.0741L180.005 25.3556L182.368 8.73452L180.388 8.45298ZM179.015 26.2148H183.937V24.2148H179.015V26.2148ZM200.2 1.64062V0.640625H199.2V1.64062H200.2ZM206.802 1.64062L207.772 1.39982L207.584 0.640625H206.802V1.64062ZM210.005 14.5508L210.978 14.3207L210.975 14.31L210.005 14.5508ZM210.805 18.6523L209.817 18.8007L209.817 18.8021L210.805 18.6523ZM211.372 22.3047L210.384 22.4618L210.518 23.3047H211.372V22.3047ZM211.528 22.3047V23.3047H212.382L212.516 22.4618L211.528 22.3047ZM212.095 18.6523L213.083 18.8021L213.083 18.8007L212.095 18.6523ZM212.895 14.5508L211.926 14.3031L211.924 14.3119L211.922 14.3208L212.895 14.5508ZM216.196 1.64062V0.640625H215.42L215.227 1.39292L216.196 1.64062ZM222.661 1.64062H223.661V0.640625H222.661V1.64062ZM222.661 35V36H223.661V35H222.661ZM217.934 35H216.934V36H217.934V35ZM217.973 19.082L216.974 19.057L216.974 19.0654L217.973 19.082ZM218.11 14.7852L219.109 14.8251L219.109 14.8247L218.11 14.7852ZM218.462 8.92578L219.458 9.01432L219.555 7.92578H218.462V8.92578ZM218.091 8.92578V7.92578H217.296L217.116 8.70035L218.091 8.92578ZM213.052 30.7031V31.7031H213.847L214.026 30.9286L213.052 30.7031ZM209.848 30.7031L208.875 30.9302L209.055 31.7031H209.848V30.7031ZM204.77 8.92578L205.744 8.69869L205.564 7.92578H204.77V8.92578ZM204.399 8.92578V7.92578H203.306L203.403 9.01432L204.399 8.92578ZM204.751 14.7852L203.752 14.8247L203.752 14.8251L204.751 14.7852ZM204.868 19.082L203.868 19.0987L203.868 19.107L204.868 19.082ZM204.927 35V36H205.927V35H204.927ZM200.2 35H199.2V36H200.2V35ZM200.2 2.64062H206.802V0.640625H200.2V2.64062ZM205.831 1.88143L209.034 14.7916L210.975 14.31L207.772 1.39982L205.831 1.88143ZM209.031 14.7808C209.364 16.1892 209.626 17.529 209.817 18.8007L211.794 18.504C211.595 17.1715 211.322 15.777 210.978 14.3208L209.031 14.7808ZM209.817 18.8021C210.012 20.0934 210.202 21.3133 210.384 22.4618L212.359 22.1476C212.178 21.0044 211.989 19.7895 211.794 18.5025L209.817 18.8021ZM211.372 23.3047H211.528V21.3047H211.372V23.3047ZM212.516 22.4618C212.698 21.3133 212.888 20.0934 213.083 18.8021L211.106 18.5025C210.911 19.7895 210.722 21.0044 210.541 22.1476L212.516 22.4618ZM213.083 18.8007C213.274 17.529 213.536 16.1892 213.868 14.7808L211.922 14.3208C211.578 15.777 211.305 17.1715 211.106 18.504L213.083 18.8007ZM213.864 14.7985L217.165 1.88833L215.227 1.39292L211.926 14.3031L213.864 14.7985ZM216.196 2.64062H222.661V0.640625H216.196V2.64062ZM221.661 1.64062V35H223.661V1.64062H221.661ZM222.661 34H217.934V36H222.661V34ZM218.934 35V23.9648H216.934V35H218.934ZM218.934 23.9648C218.934 22.2772 218.947 20.6552 218.973 19.0987L216.974 19.0654C216.947 20.6339 216.934 22.267 216.934 23.9648H218.934ZM218.973 19.107C219.012 17.5486 219.058 16.1214 219.109 14.8251L217.111 14.7452C217.059 16.0531 217.013 17.4905 216.974 19.057L218.973 19.107ZM219.109 14.8247C219.161 13.5156 219.219 12.3655 219.284 11.3734L217.288 11.2438C217.222 12.2569 217.163 13.4245 217.111 14.7456L219.109 14.8247ZM219.284 11.3734C219.349 10.374 219.407 9.58876 219.458 9.01432L217.466 8.83724C217.413 9.43468 217.353 10.238 217.288 11.2438L219.284 11.3734ZM218.462 7.92578H218.091V9.92578H218.462V7.92578ZM217.116 8.70035L212.077 30.4777L214.026 30.9286L219.065 9.15122L217.116 8.70035ZM213.052 29.7031H209.848V31.7031H213.052V29.7031ZM210.822 30.476L205.744 8.69869L203.796 9.15287L208.875 30.9302L210.822 30.476ZM204.77 7.92578H204.399V9.92578H204.77V7.92578ZM203.403 9.01432C203.454 9.58876 203.512 10.374 203.577 11.3734L205.573 11.2438C205.508 10.238 205.448 9.43468 205.395 8.83724L203.403 9.01432ZM203.577 11.3734C203.642 12.3655 203.7 13.5156 203.752 14.8247L205.75 14.7456C205.698 13.4245 205.639 12.2569 205.573 11.2438L203.577 11.3734ZM203.752 14.8251C203.803 16.1181 203.842 17.5425 203.868 19.0987L205.868 19.0654C205.842 17.4966 205.802 16.0564 205.75 14.7452L203.752 14.8251ZM203.868 19.107C203.907 20.6605 203.927 22.2798 203.927 23.9648H205.927C205.927 22.2645 205.907 20.6285 205.868 19.057L203.868 19.107ZM203.927 23.9648V35H205.927V23.9648H203.927ZM204.927 34H200.2V36H204.927V34ZM201.2 35V1.64062H199.2V35H201.2Z" fill="#E6E6E6"/>
</svg>
