<svg width="180" height="36" viewBox="0 0 180 36" fill="none" xmlns="http://www.w3.org/2000/svg">
<path d="M1.85156 1.64062V0.640625H0.851562V1.64062H1.85156ZM6.91016 1.64062H7.91016V0.640625H6.91016V1.64062ZM6.91016 31.0156H5.91016V32.0156H6.91016V31.0156ZM13.8047 31.0156H14.8047V30.0156H13.8047V31.0156ZM13.8047 35V36H14.8047V35H13.8047ZM1.85156 35H0.851562V36H1.85156V35ZM1.85156 2.64062H6.91016V0.640625H1.85156V2.64062ZM5.91016 1.64062V31.0156H7.91016V1.64062H5.91016ZM6.91016 32.0156H13.8047V30.0156H6.91016V32.0156ZM12.8047 31.0156V35H14.8047V31.0156H12.8047ZM13.8047 34H1.85156V36H13.8047V34ZM2.85156 35V1.64062H0.851562V35H2.85156ZM23.4078 1.64062V0.640625H22.4078V1.64062H23.4078ZM28.4664 1.64062H29.4664V0.640625H28.4664V1.64062ZM28.4664 35V36H29.4664V35H28.4664ZM23.4078 35H22.4078V36H23.4078V35ZM23.4078 2.64062H28.4664V0.640625H23.4078V2.64062ZM27.4664 1.64062V35H29.4664V1.64062H27.4664ZM28.4664 34H23.4078V36H28.4664V34ZM24.4078 35V1.64062H22.4078V35H24.4078ZM40.5891 1.64062V0.640625H39.5891V1.64062H40.5891ZM44.6906 1.64062L45.6308 1.30007L45.392 0.640625H44.6906V1.64062ZM52.7766 23.9648L51.8363 24.3054L52.0752 24.9648H52.7766V23.9648ZM52.8937 23.9648V24.9648H53.9716L53.8909 23.8901L52.8937 23.9648ZM52.5617 20.0586L51.5637 20.122L51.5638 20.123L52.5617 20.0586ZM52.3664 1.64062V0.640625H51.3664V1.64062H52.3664ZM56.8977 1.64062H57.8977V0.640625H56.8977V1.64062ZM56.8977 35V36H57.8977V35H56.8977ZM52.757 35L51.8192 35.3471L52.0609 36H52.757V35ZM44.7102 13.2617L45.648 12.9146L45.4063 12.2617H44.7102V13.2617ZM44.5539 13.2617V12.2617H43.485L43.5561 13.3282L44.5539 13.2617ZM44.7102 15.1758L43.7146 15.2697L43.7147 15.2715L44.7102 15.1758ZM45.0227 20.8203L44.0232 20.8519L44.0232 20.8522L45.0227 20.8203ZM45.0812 35V36H46.0812V35H45.0812ZM40.5891 35H39.5891V36H40.5891V35ZM40.5891 2.64062H44.6906V0.640625H40.5891V2.64062ZM43.7504 1.98118L51.8363 24.3054L53.7168 23.6243L45.6308 1.30007L43.7504 1.98118ZM52.7766 24.9648H52.8937V22.9648H52.7766V24.9648ZM53.8909 23.8901C53.8511 23.3586 53.7982 22.7701 53.7323 22.125L51.7427 22.3281C51.8071 22.9591 51.8583 23.5294 51.8965 24.0396L53.8909 23.8901ZM53.7323 22.125C53.6688 21.5021 53.6111 20.7921 53.5596 19.9942L51.5638 20.123C51.6165 20.9396 51.676 21.675 51.7427 22.3281L53.7323 22.125ZM53.5597 19.9952C53.5083 19.1852 53.4631 18.2694 53.4243 17.2472L51.4257 17.3231C51.465 18.3582 51.511 19.2914 51.5637 20.122L53.5597 19.9952ZM53.4243 17.2472C53.3858 16.2339 53.3664 15.088 53.3664 13.8086H51.3664C51.3664 15.1073 51.3861 16.2791 51.4257 17.3231L53.4243 17.2472ZM53.3664 13.8086V1.64062H51.3664V13.8086H53.3664ZM52.3664 2.64062H56.8977V0.640625H52.3664V2.64062ZM55.8977 1.64062V35H57.8977V1.64062H55.8977ZM56.8977 34H52.757V36H56.8977V34ZM53.6948 34.6529L45.648 12.9146L43.7723 13.6089L51.8192 35.3471L53.6948 34.6529ZM44.7102 12.2617H44.5539V14.2617H44.7102V12.2617ZM43.5561 13.3282C43.5959 13.9248 43.6488 14.572 43.7146 15.2697L45.7057 15.0819C45.6413 14.3993 45.59 13.7705 45.5517 13.1952L43.5561 13.3282ZM43.7147 15.2715C43.7782 15.9317 43.8359 16.7187 43.8875 17.6344L45.8844 17.5219C45.8318 16.5886 45.7723 15.774 45.7056 15.0801L43.7147 15.2715ZM43.8875 17.6344C43.939 18.5484 43.9843 19.6206 44.0232 20.8519L46.0222 20.7887C45.9829 19.5461 45.937 18.4568 45.8844 17.5219L43.8875 17.6344ZM44.0232 20.8522C44.0618 22.0624 44.0812 23.5096 44.0812 25.1953H46.0812C46.0812 23.4957 46.0616 22.0261 46.0221 20.7884L44.0232 20.8522ZM44.0812 25.1953V35H46.0812V25.1953H44.0812ZM45.0812 34H40.5891V36H45.0812V34ZM41.5891 35V1.64062H39.5891V35H41.5891ZM69.0203 1.64062V0.640625H68.0203V1.64062H69.0203ZM74.0789 1.64062H75.0789V0.640625H74.0789V1.64062ZM74.0789 16.2109H73.0789V17.2109H74.0789V16.2109ZM74.2352 16.2109V17.2109H74.9142L75.1647 16.5797L74.2352 16.2109ZM80.0164 1.64062V0.640625H79.3373L79.0869 1.27181L80.0164 1.64062ZM85.0555 1.64062L85.9801 2.02155L86.549 0.640625H85.0555V1.64062ZM78.6102 17.2852L77.6855 16.9042L77.53 17.2818L77.6832 17.6602L78.6102 17.2852ZM85.7781 35V36H87.2615L86.7051 34.6249L85.7781 35ZM80.368 35L79.4351 35.3603L79.6822 36H80.368V35ZM74.2352 19.1211L75.168 18.7608L74.9209 18.1211H74.2352V19.1211ZM74.0789 19.1211V18.1211H73.0789V19.1211H74.0789ZM74.0789 35V36H75.0789V35H74.0789ZM69.0203 35H68.0203V36H69.0203V35ZM69.0203 2.64062H74.0789V0.640625H69.0203V2.64062ZM73.0789 1.64062V16.2109H75.0789V1.64062H73.0789ZM74.0789 17.2109H74.2352V15.2109H74.0789V17.2109ZM75.1647 16.5797L80.9459 2.00944L79.0869 1.27181L73.3056 15.8421L75.1647 16.5797ZM80.0164 2.64062H85.0555V0.640625H80.0164V2.64062ZM84.1309 1.2597L77.6855 16.9042L79.5348 17.6661L85.9801 2.02155L84.1309 1.2597ZM77.6832 17.6602L84.8511 35.3751L86.7051 34.6249L79.5371 16.9101L77.6832 17.6602ZM85.7781 34H80.368V36H85.7781V34ZM81.3008 34.6397L75.168 18.7608L73.3023 19.4814L79.4351 35.3603L81.3008 34.6397ZM74.2352 18.1211H74.0789V20.1211H74.2352V18.1211ZM73.0789 19.1211V35H75.0789V19.1211H73.0789ZM74.0789 34H69.0203V36H74.0789V34ZM70.0203 35V1.64062H68.0203V35H70.0203ZM95.0687 1.64062V0.640625H94.0687V1.64062H95.0687ZM107.432 1.64062H108.432V0.640625H107.432V1.64062ZM107.432 5.625V6.625H108.432V5.625H107.432ZM100.127 5.625V4.625H99.1273V5.625H100.127ZM100.127 15.6055H99.1273V16.6055H100.127V15.6055ZM105.772 15.6055H106.772V14.6055H105.772V15.6055ZM105.772 19.5898V20.5898H106.772V19.5898H105.772ZM100.127 19.5898V18.5898H99.1273V19.5898H100.127ZM100.127 31.0156H99.1273V32.0156H100.127V31.0156ZM107.627 31.0156H108.627V30.0156H107.627V31.0156ZM107.627 35V36H108.627V35H107.627ZM95.0687 35H94.0687V36H95.0687V35ZM95.0687 2.64062H107.432V0.640625H95.0687V2.64062ZM106.432 1.64062V5.625H108.432V1.64062H106.432ZM107.432 4.625H100.127V6.625H107.432V4.625ZM99.1273 5.625V15.6055H101.127V5.625H99.1273ZM100.127 16.6055H105.772V14.6055H100.127V16.6055ZM104.772 15.6055V19.5898H106.772V15.6055H104.772ZM105.772 18.5898H100.127V20.5898H105.772V18.5898ZM99.1273 19.5898V31.0156H101.127V19.5898H99.1273ZM100.127 32.0156H107.627V30.0156H100.127V32.0156ZM106.627 31.0156V35H108.627V31.0156H106.627ZM107.627 34H95.0687V36H107.627V34ZM96.0687 35V1.64062H94.0687V35H96.0687ZM117.68 1.64062V0.640625H116.68V1.64062H117.68ZM125.395 1.71875L125.333 2.71686L125.341 2.71735L125.349 2.71772L125.395 1.71875ZM127.895 2.12891L127.616 3.08926L127.62 3.09043L127.895 2.12891ZM130.199 3.22266L129.631 4.04539L129.639 4.05128L129.648 4.05699L130.199 3.22266ZM132.113 5.27344L131.262 5.79894L131.266 5.80457L132.113 5.27344ZM133.402 8.59375L132.428 8.8207L132.431 8.8318L133.402 8.59375ZM133.402 28.0664L132.431 27.8305L132.428 27.8395L133.402 28.0664ZM130.199 33.4375L130.757 34.2672L130.761 34.265L130.199 33.4375ZM127.895 34.5117L127.62 33.5502L127.616 33.5514L127.895 34.5117ZM125.395 34.9414L125.441 35.9403L125.448 35.94L125.455 35.9396L125.395 34.9414ZM117.68 35H116.68V36H117.68V35ZM126.273 31.1133L125.909 30.182L125.902 30.1848L126.273 31.1133ZM127.68 29.8828L126.817 29.3766L126.814 29.3825L127.68 29.8828ZM128.402 27.4609L129.394 27.5881L129.394 27.5865L128.402 27.4609ZM128.402 9.35547L127.41 9.48105L127.41 9.48263L128.402 9.35547ZM127.68 6.93359L126.809 7.42565L126.816 7.43696L126.822 7.44809L127.68 6.93359ZM126.273 5.68359L125.902 6.6121L125.909 6.61484L126.273 5.68359ZM122.738 5.33203V4.33203H121.738V5.33203H122.738ZM122.738 31.4648H121.738V32.4648H122.738V31.4648ZM117.68 2.64062H122.934V0.640625H117.68V2.64062ZM122.934 2.64062C123.706 2.64062 124.506 2.66595 125.333 2.71686L125.456 0.720638C124.591 0.66738 123.75 0.640625 122.934 0.640625V2.64062ZM125.349 2.71772C126.131 2.75327 126.886 2.87745 127.616 3.08925L128.173 1.16856C127.288 0.911609 126.377 0.762353 125.44 0.719781L125.349 2.71772ZM127.62 3.09043C128.333 3.29425 129.002 3.61128 129.631 4.04539L130.768 2.39993C129.964 1.84445 129.097 1.43231 128.169 1.16738L127.62 3.09043ZM129.648 4.05699C130.235 4.44496 130.778 5.01373 131.262 5.79893L132.964 4.74794C132.355 3.76232 131.622 2.96389 130.75 2.38832L129.648 4.05699ZM131.266 5.80457C131.738 6.55765 132.133 7.55321 132.428 8.82068L134.376 8.36682C134.047 6.952 133.582 5.73402 132.961 4.7423L131.266 5.80457ZM132.431 8.8318C132.732 10.0575 132.891 11.5998 132.891 13.4766H134.891C134.891 11.4991 134.724 9.78621 134.374 8.3557L132.431 8.8318ZM132.891 13.4766V23.1641H134.891V13.4766H132.891ZM132.891 23.1641C132.891 25.0404 132.732 26.5903 132.431 27.8305L134.374 28.3023C134.724 26.8602 134.891 25.1419 134.891 23.1641H132.891ZM132.428 27.8395C132.133 29.1069 131.738 30.1025 131.266 30.8556L132.961 31.9179C133.582 30.9261 134.047 29.7082 134.376 28.2933L132.428 27.8395ZM131.266 30.8556C130.781 31.63 130.234 32.2051 129.638 32.61L130.761 34.265C131.622 33.6803 132.352 32.8882 132.961 31.9179L131.266 30.8556ZM129.641 32.6078C129.011 33.0317 128.338 33.345 127.62 33.5502L128.169 35.4732C129.092 35.2097 129.955 34.8068 130.757 34.2672L129.641 32.6078ZM127.616 33.5514C126.881 33.7646 126.121 33.8955 125.334 33.9432L125.455 35.9396C126.387 35.8831 127.293 35.7276 128.173 35.4721L127.616 33.5514ZM125.348 33.9425C124.516 33.9809 123.712 34 122.934 34V36C123.744 36 124.58 35.9801 125.441 35.9403L125.348 33.9425ZM122.934 34H117.68V36H122.934V34ZM118.68 35V1.64062H116.68V35H118.68ZM124.027 32.4648C125.014 32.4648 125.901 32.3394 126.645 32.0418L125.902 30.1848C125.474 30.3559 124.863 30.4648 124.027 30.4648V32.4648ZM126.638 32.0445C127.46 31.723 128.1 31.1544 128.546 30.3831L126.814 29.3825C126.582 29.7831 126.285 30.0348 125.909 30.182L126.638 32.0445ZM128.542 30.389C128.986 29.6322 129.254 28.6796 129.394 27.5881L127.41 27.3338C127.29 28.2735 127.076 28.9355 126.817 29.3766L128.542 30.389ZM129.394 27.5865C129.532 26.501 129.598 25.16 129.598 23.5742H127.598C127.598 25.1135 127.533 26.3636 127.41 27.3354L129.394 27.5865ZM129.598 23.5742V13.2227H127.598V23.5742H129.598ZM129.598 13.2227C129.598 11.6372 129.532 10.3019 129.394 9.2283L127.41 9.48263C127.533 10.4403 127.598 11.6831 127.598 13.2227H129.598ZM129.394 9.22989C129.255 8.12803 128.987 7.1692 128.537 6.4191L126.822 7.44809C127.075 7.86986 127.289 8.52561 127.41 9.48105L129.394 9.22989ZM128.55 6.44154C128.107 5.65733 127.467 5.07662 126.638 4.75235L125.909 6.61484C126.278 6.75932 126.575 7.01194 126.809 7.42565L128.55 6.44154ZM126.645 4.75512C125.901 4.45745 125.014 4.33203 124.027 4.33203V6.33203C124.863 6.33203 125.474 6.44098 125.902 6.61207L126.645 4.75512ZM124.027 4.33203H122.738V6.33203H124.027V4.33203ZM121.738 5.33203V31.4648H123.738V5.33203H121.738ZM122.738 32.4648H124.027V30.4648H122.738V32.4648ZM144.822 1.64062V0.640625H143.822V1.64062H144.822ZM149.88 1.64062H150.88V0.640625H149.88V1.64062ZM149.88 35V36H150.88V35H149.88ZM144.822 35H143.822V36H144.822V35ZM144.822 2.64062H149.88V0.640625H144.822V2.64062ZM148.88 1.64062V35H150.88V1.64062H148.88ZM149.88 34H144.822V36H149.88V34ZM145.822 35V1.64062H143.822V35H145.822ZM162.003 1.64062V0.640625H161.003V1.64062H162.003ZM166.105 1.64062L167.045 1.30007L166.806 0.640625H166.105V1.64062ZM174.191 23.9648L173.25 24.3054L173.489 24.9648H174.191V23.9648ZM174.308 23.9648V24.9648H175.386L175.305 23.8901L174.308 23.9648ZM173.976 20.0586L172.978 20.122L172.978 20.123L173.976 20.0586ZM173.78 1.64062V0.640625H172.78V1.64062H173.78ZM178.312 1.64062H179.312V0.640625H178.312V1.64062ZM178.312 35V36H179.312V35H178.312ZM174.171 35L173.233 35.3471L173.475 36H174.171V35ZM166.124 13.2617L167.062 12.9146L166.82 12.2617H166.124V13.2617ZM165.968 13.2617V12.2617H164.899L164.97 13.3282L165.968 13.2617ZM166.124 15.1758L165.129 15.2697L165.129 15.2715L166.124 15.1758ZM166.437 20.8203L165.437 20.8519L165.437 20.8522L166.437 20.8203ZM166.495 35V36H167.495V35H166.495ZM162.003 35H161.003V36H162.003V35ZM162.003 2.64062H166.105V0.640625H162.003V2.64062ZM165.164 1.98118L173.25 24.3054L175.131 23.6243L167.045 1.30007L165.164 1.98118ZM174.191 24.9648H174.308V22.9648H174.191V24.9648ZM175.305 23.8901C175.265 23.3586 175.212 22.7701 175.146 22.125L173.157 22.3281C173.221 22.9591 173.272 23.5294 173.311 24.0396L175.305 23.8901ZM175.146 22.125C175.083 21.5021 175.025 20.7921 174.974 19.9942L172.978 20.123C173.031 20.9396 173.09 21.675 173.157 22.3281L175.146 22.125ZM174.974 19.9952C174.922 19.1852 174.877 18.2694 174.838 17.2472L172.84 17.3231C172.879 18.3582 172.925 19.2914 172.978 20.122L174.974 19.9952ZM174.838 17.2472C174.8 16.2339 174.78 15.088 174.78 13.8086H172.78C172.78 15.1073 172.8 16.2791 172.84 17.3231L174.838 17.2472ZM174.78 13.8086V1.64062H172.78V13.8086H174.78ZM173.78 2.64062H178.312V0.640625H173.78V2.64062ZM177.312 1.64062V35H179.312V1.64062H177.312ZM178.312 34H174.171V36H178.312V34ZM175.109 34.6529L167.062 12.9146L165.186 13.6089L173.233 35.3471L175.109 34.6529ZM166.124 12.2617H165.968V14.2617H166.124V12.2617ZM164.97 13.3282C165.01 13.9248 165.063 14.572 165.129 15.2697L167.12 15.0819C167.055 14.3993 167.004 13.7705 166.966 13.1952L164.97 13.3282ZM165.129 15.2715C165.192 15.9317 165.25 16.7187 165.302 17.6344L167.298 17.5219C167.246 16.5886 167.186 15.774 167.12 15.0801L165.129 15.2715ZM165.302 17.6344C165.353 18.5484 165.398 19.6206 165.437 20.8519L167.436 20.7887C167.397 19.5461 167.351 18.4568 167.298 17.5219L165.302 17.6344ZM165.437 20.8522C165.476 22.0624 165.495 23.5096 165.495 25.1953H167.495C167.495 23.4957 167.476 22.0261 167.436 20.7884L165.437 20.8522ZM165.495 25.1953V35H167.495V25.1953H165.495ZM166.495 34H162.003V36H166.495V34ZM163.003 35V1.64062H161.003V35H163.003Z" fill="#E6E6E6"/>
</svg>
