<svg width="117" height="86" viewBox="0 0 117 86" fill="none" xmlns="http://www.w3.org/2000/svg">
<g filter="url(#filter0_d)">
<path fill-rule="evenodd" clip-rule="evenodd" d="M57.5004 8.19278C58.0946 7.86928 58.6283 7.62162 59.0739 7.47098L59.1157 7.49311C71.3704 0.966405 84.1523 2.96068 89.0115 4.77366C98.8941 6.55366 107.789 17.3821 111.001 22.5738L98.647 28.5071C89.9503 14.8603 75.9165 14.9097 69.9868 16.6403L69.9873 16.6411C69.5423 16.7686 68.9996 16.9509 68.3908 17.1885C71.6108 21.7031 77.2077 31.7235 76.639 39.8793C76.7989 44.598 75.3919 55.8046 68.6244 63.874C69.0788 64.0243 69.5413 64.1568 70.0108 64.2685L70.0547 64.2788C70.0345 64.3017 70.0142 64.3243 69.9939 64.3468L69.9868 64.3548C85.9969 69.2989 95.7647 58.8334 98.647 52.9821L111.001 59.1629C96.6517 82.6082 73.5535 80.4307 61.3393 75.5752C61.0842 75.3673 60.7304 75.1754 60.2635 75.0041C59.414 74.692 58.4758 74.2206 57.5004 73.6433C56.5249 74.2206 55.5867 74.692 54.7372 75.0041C54.2703 75.1754 53.9165 75.3673 53.6614 75.5752C41.4472 80.4307 18.349 82.6082 4 59.1629L16.3537 52.9821C19.2361 58.8334 29.0038 69.2989 45.0139 64.3548L45.0073 64.3474C44.9869 64.3247 44.9664 64.3019 44.946 64.2788L44.9899 64.2685C45.4594 64.1568 45.922 64.0243 46.3763 63.874C39.6088 55.8046 38.2018 44.598 38.3617 39.8793C37.793 31.7235 43.3899 21.7031 46.6099 17.1885C46.0011 16.9509 45.4584 16.7686 45.0134 16.6411L45.0139 16.6403C39.0842 14.9097 25.0504 14.8603 16.3537 28.5071L4 22.5738C7.21207 17.3821 16.1066 6.55366 25.9892 4.77366C30.8484 2.96068 43.6303 0.966405 55.885 7.49311L55.9268 7.47098C56.3724 7.62162 56.9061 7.86928 57.5004 8.19278ZM57.5004 25.8677L57.4253 25.9802C48.1936 39.6515 53.1192 50.8638 57.5004 55.7076C61.8815 50.8638 66.8071 39.6515 57.5754 25.9802L57.5004 25.8677Z" fill="url(#paint0_linear)"/>
<path fill-rule="evenodd" clip-rule="evenodd" d="M57.5004 8.19278C58.0946 7.86928 58.6283 7.62162 59.0739 7.47098L59.1157 7.49311C71.3704 0.966405 84.1523 2.96068 89.0115 4.77366C98.8941 6.55366 107.789 17.3821 111.001 22.5738L98.647 28.5071C89.9503 14.8603 75.9165 14.9097 69.9868 16.6403L69.9873 16.6411C69.5423 16.7686 68.9996 16.9509 68.3908 17.1885C71.6108 21.7031 77.2077 31.7235 76.639 39.8793C76.7989 44.598 75.3919 55.8046 68.6244 63.874C69.0788 64.0243 69.5413 64.1568 70.0108 64.2685L70.0547 64.2788C70.0345 64.3017 70.0142 64.3243 69.9939 64.3468L69.9868 64.3548C85.9969 69.2989 95.7647 58.8334 98.647 52.9821L111.001 59.1629C96.6517 82.6082 73.5535 80.4307 61.3393 75.5752C61.0842 75.3673 60.7304 75.1754 60.2635 75.0041C59.414 74.692 58.4758 74.2206 57.5004 73.6433C56.5249 74.2206 55.5867 74.692 54.7372 75.0041C54.2703 75.1754 53.9165 75.3673 53.6614 75.5752C41.4472 80.4307 18.349 82.6082 4 59.1629L16.3537 52.9821C19.2361 58.8334 29.0038 69.2989 45.0139 64.3548L45.0073 64.3474C44.9869 64.3247 44.9664 64.3019 44.946 64.2788L44.9899 64.2685C45.4594 64.1568 45.922 64.0243 46.3763 63.874C39.6088 55.8046 38.2018 44.598 38.3617 39.8793C37.793 31.7235 43.3899 21.7031 46.6099 17.1885C46.0011 16.9509 45.4584 16.7686 45.0134 16.6411L45.0139 16.6403C39.0842 14.9097 25.0504 14.8603 16.3537 28.5071L4 22.5738C7.21207 17.3821 16.1066 6.55366 25.9892 4.77366C30.8484 2.96068 43.6303 0.966405 55.885 7.49311L55.9268 7.47098C56.3724 7.62162 56.9061 7.86928 57.5004 8.19278ZM57.5004 25.8677L57.4253 25.9802C48.1936 39.6515 53.1192 50.8638 57.5004 55.7076C61.8815 50.8638 66.8071 39.6515 57.5754 25.9802L57.5004 25.8677Z" fill="url(#paint1_linear)"/>
<path fill-rule="evenodd" clip-rule="evenodd" d="M57.5004 8.19278C58.0946 7.86928 58.6283 7.62162 59.0739 7.47098L59.1157 7.49311C71.3704 0.966405 84.1523 2.96068 89.0115 4.77366C98.8941 6.55366 107.789 17.3821 111.001 22.5738L98.647 28.5071C89.9503 14.8603 75.9165 14.9097 69.9868 16.6403L69.9873 16.6411C69.5423 16.7686 68.9996 16.9509 68.3908 17.1885C71.6108 21.7031 77.2077 31.7235 76.639 39.8793C76.7989 44.598 75.3919 55.8046 68.6244 63.874C69.0788 64.0243 69.5413 64.1568 70.0108 64.2685L70.0547 64.2788C70.0345 64.3017 70.0142 64.3243 69.9939 64.3468L69.9868 64.3548C85.9969 69.2989 95.7647 58.8334 98.647 52.9821L111.001 59.1629C96.6517 82.6082 73.5535 80.4307 61.3393 75.5752C61.0842 75.3673 60.7304 75.1754 60.2635 75.0041C59.414 74.692 58.4758 74.2206 57.5004 73.6433C56.5249 74.2206 55.5867 74.692 54.7372 75.0041C54.2703 75.1754 53.9165 75.3673 53.6614 75.5752C41.4472 80.4307 18.349 82.6082 4 59.1629L16.3537 52.9821C19.2361 58.8334 29.0038 69.2989 45.0139 64.3548L45.0073 64.3474C44.9869 64.3247 44.9664 64.3019 44.946 64.2788L44.9899 64.2685C45.4594 64.1568 45.922 64.0243 46.3763 63.874C39.6088 55.8046 38.2018 44.598 38.3617 39.8793C37.793 31.7235 43.3899 21.7031 46.6099 17.1885C46.0011 16.9509 45.4584 16.7686 45.0134 16.6411L45.0139 16.6403C39.0842 14.9097 25.0504 14.8603 16.3537 28.5071L4 22.5738C7.21207 17.3821 16.1066 6.55366 25.9892 4.77366C30.8484 2.96068 43.6303 0.966405 55.885 7.49311L55.9268 7.47098C56.3724 7.62162 56.9061 7.86928 57.5004 8.19278ZM57.5004 25.8677L57.4253 25.9802C48.1936 39.6515 53.1192 50.8638 57.5004 55.7076C61.8815 50.8638 66.8071 39.6515 57.5754 25.9802L57.5004 25.8677Z" fill="url(#paint2_linear)"/>
<path fill-rule="evenodd" clip-rule="evenodd" d="M57.5004 8.19278C58.0946 7.86928 58.6283 7.62162 59.0739 7.47098L59.1157 7.49311C71.3704 0.966405 84.1523 2.96068 89.0115 4.77366C98.8941 6.55366 107.789 17.3821 111.001 22.5738L98.647 28.5071C89.9503 14.8603 75.9165 14.9097 69.9868 16.6403L69.9873 16.6411C69.5423 16.7686 68.9996 16.9509 68.3908 17.1885C71.6108 21.7031 77.2077 31.7235 76.639 39.8793C76.7989 44.598 75.3919 55.8046 68.6244 63.874C69.0788 64.0243 69.5413 64.1568 70.0108 64.2685L70.0547 64.2788C70.0345 64.3017 70.0142 64.3243 69.9939 64.3468L69.9868 64.3548C85.9969 69.2989 95.7647 58.8334 98.647 52.9821L111.001 59.1629C96.6517 82.6082 73.5535 80.4307 61.3393 75.5752C61.0842 75.3673 60.7304 75.1754 60.2635 75.0041C59.414 74.692 58.4758 74.2206 57.5004 73.6433C56.5249 74.2206 55.5867 74.692 54.7372 75.0041C54.2703 75.1754 53.9165 75.3673 53.6614 75.5752C41.4472 80.4307 18.349 82.6082 4 59.1629L16.3537 52.9821C19.2361 58.8334 29.0038 69.2989 45.0139 64.3548L45.0073 64.3474C44.9869 64.3247 44.9664 64.3019 44.946 64.2788L44.9899 64.2685C45.4594 64.1568 45.922 64.0243 46.3763 63.874C39.6088 55.8046 38.2018 44.598 38.3617 39.8793C37.793 31.7235 43.3899 21.7031 46.6099 17.1885C46.0011 16.9509 45.4584 16.7686 45.0134 16.6411L45.0139 16.6403C39.0842 14.9097 25.0504 14.8603 16.3537 28.5071L4 22.5738C7.21207 17.3821 16.1066 6.55366 25.9892 4.77366C30.8484 2.96068 43.6303 0.966405 55.885 7.49311L55.9268 7.47098C56.3724 7.62162 56.9061 7.86928 57.5004 8.19278ZM57.5004 25.8677L57.4253 25.9802C48.1936 39.6515 53.1192 50.8638 57.5004 55.7076C61.8815 50.8638 66.8071 39.6515 57.5754 25.9802L57.5004 25.8677Z" fill="url(#paint3_linear)"/>
</g>
<defs>
<filter id="filter0_d" x="0" y="0" width="117.001" height="85.7076" filterUnits="userSpaceOnUse" color-interpolation-filters="sRGB">
<feFlood flood-opacity="0" result="BackgroundImageFix"/>
<feColorMatrix in="SourceAlpha" type="matrix" values="0 0 0 0 0 0 0 0 0 0 0 0 0 0 0 0 0 0 127 0"/>
<feOffset dx="1" dy="2"/>
<feGaussianBlur stdDeviation="2.5"/>
<feColorMatrix type="matrix" values="0 0 0 0 0.701961 0 0 0 0 0.529412 0 0 0 0 0.156863 0 0 0 1 0"/>
<feBlend mode="normal" in2="BackgroundImageFix" result="effect1_dropShadow"/>
<feBlend mode="normal" in="SourceGraphic" in2="effect1_dropShadow" result="shape"/>
</filter>
<linearGradient id="paint0_linear" x1="57.5004" y1="26.9741" x2="57.5147" y2="52.2099" gradientUnits="userSpaceOnUse">
<stop stop-color="#FDE698"/>
<stop offset="0.308384" stop-color="#2E1D01"/>
<stop offset="0.493542" stop-color="#2E1D01"/>
<stop offset="0.859375" stop-color="#DA960D"/>
<stop offset="1" stop-color="#DA960D"/>
</linearGradient>
<linearGradient id="paint1_linear" x1="72.3896" y1="56.7524" x2="95.859" y2="69.8751" gradientUnits="userSpaceOnUse">
<stop stop-color="#DB970D" stop-opacity="0"/>
<stop offset="1" stop-color="#825305"/>
</linearGradient>
<linearGradient id="paint2_linear" x1="30.4978" y1="40.8538" x2="11.0662" y2="59.5284" gradientUnits="userSpaceOnUse">
<stop stop-color="#DB970D" stop-opacity="0"/>
<stop offset="1" stop-color="#97702E"/>
</linearGradient>
<linearGradient id="paint3_linear" x1="66.5853" y1="11.0755" x2="66.333" y2="24.9552" gradientUnits="userSpaceOnUse">
<stop stop-color="#F3CF8A"/>
<stop offset="1" stop-color="white" stop-opacity="0"/>
</linearGradient>
</defs>
</svg>
